<svg width="406" height="306" viewBox="0 0 406 306" fill="none" xmlns="http://www.w3.org/2000/svg">
<path d="M314.356 138.679V261.25H88.041V138.679L201.203 70.2578L314.356 138.679Z" fill="#F1F2F2"/>
<path d="M314.355 261.757H88.0104C87.8758 261.757 87.7467 261.704 87.6516 261.609C87.5564 261.514 87.5029 261.384 87.5029 261.25V138.679C87.5035 138.59 87.5272 138.503 87.5717 138.426C87.6162 138.35 87.68 138.286 87.7567 138.242L200.97 69.8209C201.049 69.7714 201.14 69.7451 201.234 69.7451C201.327 69.7451 201.418 69.7714 201.498 69.8209L314.65 138.242C314.725 138.288 314.786 138.352 314.829 138.428C314.872 138.505 314.894 138.591 314.893 138.679V261.25C314.894 261.319 314.879 261.388 314.852 261.451C314.825 261.515 314.785 261.572 314.734 261.62C314.684 261.667 314.624 261.704 314.559 261.728C314.494 261.752 314.425 261.762 314.355 261.757ZM88.5484 260.742H313.878V138.942L201.213 70.8258L88.5484 138.942V260.742Z" fill="#231F20"/>
<path d="M250.349 87.6451C250.349 87.6451 255.577 77.8808 254.897 71.4051C254.217 64.9294 247.792 63.7723 247.792 63.7723C247.792 63.7723 232.293 55.703 228.7 50.1104L228.821 58.2912C226.007 57.3195 223.41 55.8057 221.178 53.8354C221.178 53.8354 218.763 58.007 221.371 61.722C221.371 61.722 216.804 62.6152 213.799 59.5905C213.799 59.5905 215.332 71.8719 226.162 73.4553C233.297 74.45 242.585 88.1221 250.349 87.6451Z" fill="white"/>
<path d="M249.954 88.1627C245.67 88.1627 241.073 84.3057 236.627 80.5806C232.81 77.3834 229.217 74.3587 226.111 73.9121C215.028 72.2881 213.333 59.7021 213.312 59.6006C213.3 59.4961 213.321 59.3905 213.372 59.2984C213.423 59.2063 213.501 59.1323 213.596 59.0866C213.691 59.0409 213.797 59.0258 213.901 59.0433C214.005 59.0608 214.101 59.1102 214.175 59.1844C215.034 59.9469 216.043 60.5214 217.137 60.871C218.232 61.2205 219.387 61.3375 220.529 61.2144C218.499 57.4894 220.661 53.6527 220.762 53.4903C220.798 53.4249 220.847 53.3682 220.907 53.3244C220.967 53.2806 221.036 53.2508 221.109 53.2372C221.182 53.2236 221.257 53.2265 221.329 53.2457C221.401 53.2649 221.467 53.2999 221.524 53.3482C223.554 55.0843 225.85 56.4826 228.324 57.4894L228.212 50.0291C228.208 49.9198 228.241 49.8124 228.306 49.724C228.37 49.6356 228.462 49.5715 228.568 49.5419C228.673 49.5081 228.787 49.5096 228.891 49.5462C228.996 49.5829 229.085 49.6526 229.146 49.7449C232.516 54.9823 246.909 62.6253 247.985 63.1937C248.766 63.3662 254.724 64.8583 255.404 71.3137C256.095 77.9213 251.009 87.4928 250.796 87.8988C250.755 87.9745 250.695 88.0385 250.622 88.0846C250.55 88.1308 250.466 88.1577 250.38 88.1627H249.954ZM214.591 60.8389C215.363 64.0057 218.062 71.6994 226.264 72.9072C229.644 73.4046 233.369 76.5105 237.276 79.7991C241.59 83.4125 246.036 87.1477 249.954 87.1477H250.035C250.837 85.5744 254.988 77.1296 254.389 71.405C253.76 65.315 247.964 64.3 247.721 64.2188L247.579 64.1681C246.98 63.8636 234.018 57.0631 229.248 51.5922L229.349 58.2303C229.35 58.3082 229.333 58.3851 229.299 58.4554C229.266 58.5257 229.217 58.5875 229.156 58.6363C229.094 58.6853 229.022 58.7191 228.944 58.735C228.866 58.7508 228.786 58.7483 228.71 58.7277C226.024 57.8105 223.537 56.3914 221.382 54.5459C220.86 55.62 220.625 56.8106 220.7 58.0022C220.775 59.1938 221.156 60.3459 221.808 61.3464C221.853 61.4181 221.882 61.4995 221.891 61.584C221.899 61.6686 221.888 61.754 221.859 61.8336C221.826 61.9116 221.775 61.9803 221.709 62.0334C221.644 62.0866 221.566 62.1226 221.483 62.1381C219.104 62.5496 216.657 62.0882 214.591 60.8389V60.8389Z" fill="#231F20"/>
<path d="M242.311 188.728C242.311 188.728 267.29 158.471 271.421 135.359C275.552 112.248 261.119 106.939 256.084 105.214C251.05 103.488 224.812 92.6075 211.638 102.108C198.463 111.608 185.339 170.874 185.339 170.874L242.311 188.728Z" fill="#03DAC6"/>
<path d="M152.25 218.843L179.117 185.348C179.117 185.348 197.813 161.506 187.369 158.958C187.369 158.958 172.875 160.846 149.195 169.108C142.161 171.555 130.072 199.487 122.439 218.843H152.25Z" fill="#231F20"/>
<path d="M152.25 219.351H122.389C122.306 219.351 122.225 219.331 122.152 219.292C122.08 219.253 122.018 219.196 121.972 219.127C121.935 219.055 121.916 218.975 121.916 218.894C121.916 218.813 121.935 218.733 121.972 218.661C130.438 197.183 142.009 171.057 149.032 168.611C172.479 160.491 187.156 158.461 187.308 158.461H187.491C188.229 158.592 188.92 158.917 189.492 159.402C190.065 159.886 190.498 160.515 190.749 161.222C193.154 168.124 180.081 184.912 179.523 185.582L152.646 219.077C152.608 219.152 152.551 219.216 152.482 219.264C152.413 219.312 152.333 219.341 152.25 219.351V219.351ZM123.19 218.336H152.006L178.64 184.993C178.772 184.831 191.926 167.941 189.714 161.567C189.525 161.034 189.198 160.56 188.766 160.195C188.335 159.829 187.814 159.585 187.257 159.486C185.978 159.659 171.647 161.79 149.286 169.575C144.13 171.372 134.873 188.677 123.14 218.336H123.19Z" fill="#231F20"/>
<path d="M197.245 218.843L204.066 202.228C204.066 202.228 220.712 207.211 231.816 203.03C239.631 200.086 242.017 189.987 245.549 181.806C245.549 181.806 198.859 170.742 188.435 166.236C188.435 166.236 187.785 166.236 175.839 178.781C170.5 184.414 166.247 201.578 163.182 218.843H197.245Z" fill="#231F20"/>
<path d="M197.245 219.351H163.181C163.106 219.352 163.031 219.336 162.963 219.304C162.894 219.273 162.834 219.226 162.785 219.168C162.74 219.112 162.707 219.047 162.687 218.977C162.668 218.907 162.664 218.834 162.674 218.762C166.571 196.838 170.885 183.237 175.473 178.436C187.572 165.688 188.221 165.718 188.455 165.728C188.515 165.719 188.577 165.719 188.637 165.728C198.94 170.255 245.203 181.207 245.63 181.319C245.701 181.336 245.768 181.369 245.826 181.415C245.883 181.46 245.931 181.517 245.965 181.583C245.995 181.65 246.011 181.722 246.011 181.796C246.011 181.869 245.995 181.942 245.965 182.009C245.305 183.531 244.676 185.155 244.067 186.719C241.336 193.752 238.504 201.03 231.937 203.507C221.686 207.364 207.09 203.608 204.309 202.837L197.661 219.077C197.622 219.155 197.563 219.222 197.49 219.27C197.416 219.318 197.332 219.346 197.245 219.351V219.351ZM163.75 218.336H196.91L203.609 202.035C203.654 201.918 203.743 201.823 203.855 201.768C203.968 201.714 204.098 201.704 204.218 201.741C204.39 201.741 220.833 206.623 231.623 202.553C237.713 200.248 240.504 193.184 243.163 186.313C243.701 184.922 244.259 183.491 244.838 182.121C239.448 180.832 198.645 171.027 188.475 166.764C187.897 167.2 185.501 169.301 176.194 179.096C171.86 183.714 167.566 197.264 163.78 218.336H163.75Z" fill="#231F20"/>
<path d="M211.637 102.108C211.637 102.108 200.472 114.288 194.24 120.378C188.008 126.468 175.788 134.355 175.788 134.355C175.788 134.355 139.349 137.288 138.963 137.867C138.578 138.445 138.963 150.544 138.963 150.544C138.963 150.544 174.57 157.375 181.066 156.198C187.562 155.02 202.888 144.718 202.888 144.718L211.637 102.108Z" fill="#03DAC6"/>
<path d="M227.147 96.0585L226.02 107.518C226.02 107.518 228.05 114.095 235.784 112.918C243.519 111.74 244.919 106.442 244.919 106.442L249.933 84.051C249.933 84.051 245.295 80.7016 240.92 67.6081C240.92 67.6081 224.761 64.5631 224.203 70.7952C224.203 70.7952 221.016 81.9601 221.25 87.8573C221.463 93.592 227.045 95.9671 227.147 96.0585Z" fill="white"/>
<path d="M234.008 113.568C232.161 113.581 230.354 113.021 228.838 111.965C227.322 110.909 226.171 109.409 225.543 107.671C225.528 107.607 225.528 107.541 225.543 107.478L226.619 96.313C222.996 94.3439 220.884 91.238 220.752 87.8276C220.519 81.9 223.594 71.0699 223.726 70.5726C223.777 70.059 223.938 69.5624 224.199 69.1173C224.46 68.6721 224.815 68.289 225.239 67.9945C229.299 64.8886 240.555 66.9795 241.022 66.9795C241.112 66.9974 241.196 67.0388 241.266 67.0993C241.335 67.1598 241.388 67.2375 241.418 67.3246C245.66 80.0425 250.198 83.4834 250.248 83.5646C250.326 83.6238 250.385 83.7039 250.42 83.7955C250.454 83.8871 250.461 83.9865 250.441 84.0822L245.427 106.473C245.356 106.727 243.803 112.127 235.876 113.345C235.259 113.463 234.635 113.537 234.008 113.568ZM226.538 107.478C226.822 108.27 228.954 113.466 235.673 112.431C242.95 111.315 244.382 106.341 244.392 106.341L249.335 84.2852C248.269 83.3616 244.26 79.3422 240.494 68.0452C238.708 67.7407 229.207 66.2791 225.797 68.8674C225.476 69.0901 225.208 69.3814 225.013 69.7202C224.818 70.0589 224.701 70.4368 224.67 70.8263C224.67 71.0293 221.493 81.9913 221.717 87.8174C221.889 92.1413 225.239 94.5063 227.218 95.5213C227.305 95.5629 227.386 95.6139 227.462 95.6735C227.517 95.7264 227.56 95.7915 227.587 95.8637C227.613 95.9359 227.622 96.0133 227.614 96.0897L226.538 107.478Z" fill="#231F20"/>
<path d="M244.371 84.4374C244.719 83.4255 245.385 82.5533 246.269 81.9506C247.598 80.9751 249.258 80.5662 250.888 80.8138C252.765 81.3416 253.719 83.6355 253.313 85.5437C253.062 86.6875 252.524 87.7486 251.75 88.6274C250.976 89.5063 249.991 90.174 248.888 90.568C248.129 90.7925 247.333 90.865 246.546 90.7814C245.758 90.6978 244.995 90.4597 244.3 90.0808" fill="white"/>
<path d="M247.193 91.3192C246.097 91.3244 245.018 91.052 244.057 90.5275C243.998 90.4955 243.946 90.4522 243.904 90.4002C243.862 90.3482 243.831 90.2885 243.812 90.2244C243.793 90.1603 243.787 90.0931 243.794 90.0267C243.802 89.9603 243.822 89.8959 243.854 89.8373C243.886 89.7786 243.929 89.7268 243.981 89.6849C244.033 89.643 244.093 89.6117 244.157 89.5928C244.221 89.574 244.288 89.5679 244.354 89.575C244.421 89.5822 244.485 89.6023 244.544 89.6343C245.831 90.3312 247.341 90.4917 248.746 90.0809C249.759 89.7125 250.662 89.0941 251.372 88.2831C252.082 87.4722 252.575 86.495 252.806 85.4423C253.141 83.8488 252.38 81.7579 250.776 81.3113C250.043 81.1954 249.295 81.2255 248.574 81.3996C247.853 81.5738 247.173 81.8887 246.574 82.3263C245.78 82.8608 245.184 83.642 244.879 84.5491C244.836 84.6837 244.741 84.7957 244.615 84.8604C244.49 84.9251 244.343 84.9373 244.209 84.8942C244.074 84.8511 243.962 84.7564 243.898 84.6307C243.833 84.5051 243.821 84.3589 243.864 84.2243C244.245 83.1083 244.979 82.1465 245.955 81.4838C246.675 80.9507 247.497 80.5689 248.369 80.3613C249.241 80.1537 250.146 80.1247 251.03 80.276C253.242 80.885 254.257 83.524 253.821 85.5946C253.56 86.8439 252.983 88.0052 252.144 88.9669C251.305 89.9285 250.233 90.6582 249.03 91.0857C248.433 91.2539 247.814 91.3325 247.193 91.3192V91.3192Z" fill="#231F20"/>
<path d="M233.054 78.8242C233.054 78.8242 228.405 84.2139 229.217 85.3507C230.029 86.4875 232.719 86.1221 232.719 86.1221" fill="white"/>
<path d="M231.775 86.6901C231.235 86.7485 230.689 86.6879 230.175 86.5125C229.662 86.3372 229.192 86.0513 228.801 85.6751C227.898 84.4064 230.831 80.6001 232.668 78.5701C232.76 78.4872 232.879 78.4407 233.003 78.4395C233.127 78.4383 233.247 78.4823 233.34 78.5634C233.434 78.6445 233.495 78.7571 233.511 78.8798C233.527 79.0026 233.498 79.1271 233.429 79.2299C231.196 81.8283 229.42 84.5891 229.633 85.1473C230.09 85.7766 231.734 85.8172 232.678 85.6954C232.813 85.6779 232.949 85.7146 233.056 85.7974C233.164 85.8802 233.234 86.0023 233.252 86.1369C233.269 86.2715 233.233 86.4076 233.15 86.5151C233.067 86.6227 232.945 86.6929 232.81 86.7104C232.465 86.7232 232.119 86.7164 231.775 86.6901V86.6901Z" fill="#231F20"/>
<path d="M241.499 78.1419C241.621 77.3893 241.289 76.7096 240.758 76.6236C240.227 76.5377 239.697 77.0781 239.575 77.8307C239.454 78.5833 239.786 79.263 240.317 79.349C240.848 79.4349 241.377 78.8945 241.499 78.1419Z" fill="#231F20"/>
<path d="M228.799 78.6286C229.337 78.6099 229.752 77.9771 229.725 77.2152C229.699 76.4533 229.241 75.8508 228.703 75.8695C228.165 75.8882 227.751 76.521 227.777 77.2829C227.804 78.0448 228.261 78.6473 228.799 78.6286Z" fill="#231F20"/>
<path d="M227.147 96.0586C227.147 96.0586 234.11 98.4032 238.545 96.4138C238.545 96.4138 232.963 105.549 226.365 103.915L227.147 96.0586Z" fill="#231F20"/>
<path d="M228.01 104.625C227.418 104.628 226.828 104.557 226.254 104.412C226.137 104.382 226.034 104.311 225.964 104.213C225.893 104.115 225.859 103.995 225.868 103.874L226.639 96.018C226.646 95.9413 226.67 95.8671 226.708 95.8004C226.747 95.7338 226.8 95.6764 226.863 95.6323C226.931 95.5999 227.005 95.583 227.081 95.583C227.156 95.583 227.231 95.5999 227.299 95.6323C227.37 95.6323 234.14 97.8856 238.342 95.9977C238.442 95.9554 238.552 95.9454 238.658 95.9691C238.764 95.9927 238.859 96.0489 238.931 96.1297C238.995 96.2166 239.029 96.3215 239.029 96.4291C239.029 96.5367 238.995 96.6416 238.931 96.7285C238.769 97.033 234.059 104.625 228.01 104.625ZM226.924 103.519C231.481 104.321 235.551 99.6822 237.256 97.4289C233.612 98.3221 229.187 97.236 227.583 96.7691L226.924 103.519Z" fill="#231F20"/>
<path d="M227.238 80.8441H226.903L223.158 80.5497C222.085 80.4642 221.091 79.9566 220.392 79.1382C219.694 78.3199 219.349 77.2578 219.433 76.1852L219.676 73.1402C219.689 73.0073 219.754 72.8848 219.857 72.7993C219.959 72.7138 220.091 72.6722 220.225 72.6835L231.044 73.5361C231.179 73.5506 231.302 73.616 231.39 73.7188C231.434 73.7682 231.467 73.8261 231.488 73.8889C231.509 73.9517 231.517 74.0182 231.511 74.0842L231.268 77.1292C231.184 78.1469 230.719 79.0955 229.966 79.7858C229.214 80.4762 228.229 80.8577 227.208 80.8542L227.238 80.8441ZM220.651 73.7391L220.448 76.236C220.386 77.0392 220.645 77.8341 221.168 78.4466C221.692 79.0592 222.436 79.4395 223.239 79.5043L226.984 79.7986C227.382 79.8354 227.783 79.7914 228.163 79.6693C228.544 79.5472 228.895 79.3495 229.197 79.0881C229.803 78.5761 230.186 77.8478 230.263 77.0581L230.456 74.5612L220.651 73.7391Z" fill="#231F20"/>
<path d="M240.697 81.9502H240.362L236.617 81.6457C235.544 81.5603 234.55 81.0526 233.851 80.2343C233.153 79.4159 232.808 78.3538 232.892 77.2812L233.135 74.2362C233.141 74.1695 233.159 74.1044 233.189 74.0448C233.22 73.9852 233.261 73.9321 233.312 73.8887C233.363 73.8453 233.422 73.8125 233.486 73.792C233.55 73.7715 233.617 73.7638 233.684 73.7693L244.503 74.6321C244.569 74.6372 244.633 74.6552 244.691 74.6851C244.749 74.7149 244.801 74.756 244.844 74.806C244.886 74.856 244.918 74.9139 244.938 74.9764C244.958 75.0389 244.966 75.1047 244.96 75.17L244.727 78.215C244.645 79.2345 244.181 80.1856 243.429 80.8781C242.676 81.5706 241.69 81.9535 240.667 81.9502H240.697ZM240.443 80.9352C241.247 80.9974 242.043 80.7383 242.656 80.2146C243.243 79.694 243.607 78.9668 243.671 78.1846L243.874 75.6877L234.1 74.8452L233.907 77.332C233.845 78.1352 234.104 78.9301 234.627 79.5426C235.151 80.1552 235.895 80.5355 236.698 80.6003L240.443 80.9352Z" fill="#231F20"/>
<path d="M233.45 76.6926L230.811 76.4794C230.744 76.4743 230.679 76.456 230.62 76.4256C230.56 76.3953 230.507 76.3534 230.463 76.3025C230.42 76.2515 230.387 76.1925 230.367 76.1288C230.346 76.0651 230.338 75.998 230.344 75.9313C230.359 75.7985 230.424 75.6765 230.526 75.5899C230.628 75.5032 230.759 75.4584 230.892 75.4644L233.531 75.6776C233.666 75.6776 233.795 75.731 233.89 75.8262C233.985 75.9214 234.039 76.0505 234.039 76.1851C234.039 76.3196 233.985 76.4487 233.89 76.5439C233.795 76.6391 233.666 76.6926 233.531 76.6926H233.45Z" fill="#231F20"/>
<path d="M231.816 94.5978C228.639 94.5978 226.132 92.1415 225.127 89.2792C225.099 89.1992 225.093 89.1136 225.107 89.0303C225.121 88.947 225.156 88.8686 225.208 88.8021C225.253 88.7318 225.317 88.6755 225.392 88.6397C225.467 88.6038 225.551 88.5897 225.634 88.5991C229.966 88.8259 234.297 88.1341 238.342 86.5691C238.422 86.5339 238.51 86.5201 238.597 86.529C238.685 86.5379 238.768 86.5692 238.839 86.6199C238.912 86.6701 238.971 86.7389 239.008 86.8192C239.046 86.8995 239.061 86.9884 239.053 87.0766C239.053 87.3101 238.525 92.8824 233.622 94.2831C233.038 94.4751 232.43 94.5811 231.816 94.5978ZM226.345 89.6446C227.41 91.8877 229.877 94.3542 233.318 93.3595C236.485 92.4561 237.54 89.3908 237.875 87.8886C234.17 89.1666 230.263 89.7616 226.345 89.6446Z" fill="#231F20"/>
<path d="M269.087 114.613C274.994 117.384 284.586 182.304 274.162 186.678C257.922 193.449 213.962 170.438 213.962 170.438L222.61 153.417C222.61 153.417 252.471 162.308 254.542 156.239C256.612 150.169 246.361 116.786 249.852 113.152C253.344 109.518 269.087 114.613 269.087 114.613Z" fill="#03DAC6"/>
<path d="M224.244 160.288C219.163 159.252 214.21 157.663 209.476 155.548C205.842 153.812 202.706 152.148 198.656 151.275C193.631 150.184 188.452 149.991 183.36 150.706C183.154 150.723 182.955 150.789 182.781 150.899C182.182 151.407 183.065 152.28 183.796 152.513C185.773 153.094 187.826 153.375 189.886 153.345C184.677 153.825 179.556 155.003 174.661 156.847C174.103 157.06 173.443 157.456 173.534 158.035C173.626 158.613 174.6 158.786 175.29 158.674L187.369 156.644C184.281 157.011 181.277 157.889 178.477 159.243C178.082 159.435 177.625 159.72 177.605 160.166C177.605 160.938 178.68 161.08 179.442 160.927C183.148 160.179 186.782 159.11 190.302 157.73L182.294 161.029C182.257 161.166 182.248 161.308 182.267 161.448C182.287 161.588 182.333 161.723 182.405 161.845C182.477 161.967 182.572 162.074 182.686 162.158C182.799 162.243 182.928 162.304 183.065 162.338C183.625 162.446 184.204 162.4 184.74 162.206L193.296 159.912L187.805 161.942C186.943 162.257 185.897 162.846 186.039 163.759C186.202 164.835 187.694 164.916 188.77 164.774C193.025 164.139 197.338 163.979 201.63 164.297C203.203 164.389 204.776 164.125 206.278 164.581C208.44 165.241 210.623 166.804 212.632 167.86C215.779 169.504 218.915 171.179 222.051 172.854" fill="white"/>
<path d="M222.092 173.239C222.014 173.242 221.937 173.225 221.869 173.189C218.743 171.517 215.603 169.853 212.45 168.195C211.82 167.87 211.171 167.484 210.511 167.088C209.151 166.217 207.697 165.502 206.177 164.957C205.218 164.723 204.228 164.637 203.243 164.703C202.706 164.703 202.178 164.703 201.64 164.703C197.382 164.385 193.103 164.545 188.881 165.18C187.978 165.371 187.037 165.238 186.222 164.805C186.058 164.686 185.92 164.534 185.816 164.36C185.713 164.185 185.648 163.991 185.623 163.79C185.583 163.509 185.617 163.222 185.722 162.959C185.827 162.695 186 162.464 186.222 162.287L184.902 162.643C184.281 162.869 183.608 162.911 182.964 162.764C182.744 162.693 182.541 162.578 182.366 162.427C182.192 162.275 182.05 162.089 181.949 161.881C181.878 161.722 181.841 161.549 181.841 161.374C181.841 161.199 181.878 161.026 181.949 160.866C181.167 161.049 180.396 161.222 179.614 161.384C179.27 161.47 178.912 161.484 178.563 161.425C178.214 161.365 177.88 161.234 177.584 161.039C177.457 160.929 177.357 160.792 177.291 160.637C177.226 160.482 177.198 160.314 177.209 160.146C177.209 159.354 178.041 158.968 178.335 158.826L178.924 158.552L175.422 159.141C174.805 159.277 174.159 159.183 173.605 158.877C173.481 158.788 173.375 158.674 173.295 158.544C173.215 158.413 173.162 158.267 173.139 158.116C173.078 157.71 173.139 156.949 174.56 156.431C178.148 155.053 181.864 154.033 185.654 153.386C185.001 153.29 184.354 153.162 183.715 153C183.36 152.903 183.035 152.72 182.766 152.469C182.497 152.218 182.293 151.906 182.172 151.559C182.139 151.382 182.153 151.199 182.214 151.03C182.275 150.861 182.379 150.71 182.517 150.595C182.753 150.425 183.03 150.324 183.319 150.3C188.465 149.571 193.699 149.763 198.777 150.869C202.131 151.691 205.367 152.932 208.41 154.563L209.709 155.182C214.397 157.25 219.294 158.808 224.315 159.831C224.434 159.86 224.537 159.935 224.602 160.039C224.667 160.144 224.687 160.27 224.66 160.389C224.647 160.449 224.622 160.506 224.586 160.556C224.551 160.606 224.506 160.648 224.454 160.68C224.402 160.712 224.344 160.734 224.283 160.743C224.223 160.752 224.161 160.749 224.102 160.734C218.993 159.683 214.011 158.087 209.242 155.974L207.943 155.345C204.962 153.753 201.795 152.539 198.514 151.731C193.543 150.644 188.417 150.455 183.38 151.173C183.262 151.173 183.146 151.204 183.045 151.265C183.045 151.549 183.481 151.934 183.908 152.066C185.839 152.63 187.844 152.904 189.856 152.878V152.878C189.966 152.895 190.067 152.951 190.141 153.035C190.214 153.12 190.254 153.228 190.254 153.34C190.254 153.452 190.214 153.56 190.141 153.645C190.067 153.73 189.966 153.786 189.856 153.802C184.695 154.286 179.623 155.457 174.773 157.283C174.367 157.436 173.9 157.71 173.94 157.964C173.944 157.994 173.954 158.023 173.969 158.05C173.985 158.076 174.007 158.098 174.032 158.116C174.385 158.275 174.782 158.311 175.158 158.217L184.507 156.634C185.415 156.432 186.333 156.276 187.257 156.167C187.378 156.155 187.498 156.189 187.594 156.263C187.69 156.336 187.755 156.443 187.775 156.563C187.792 156.684 187.762 156.807 187.69 156.905C187.618 157.004 187.51 157.071 187.389 157.091L184.679 157.547C182.574 158.007 180.53 158.713 178.589 159.648C178.092 159.892 177.98 160.075 177.98 160.176C177.977 160.205 177.981 160.233 177.991 160.26C178.002 160.287 178.019 160.31 178.041 160.328C178.414 160.518 178.844 160.565 179.249 160.46C182.934 159.718 186.548 158.655 190.048 157.283C190.162 157.24 190.288 157.242 190.399 157.289C190.511 157.336 190.6 157.425 190.647 157.537C190.692 157.652 190.69 157.779 190.643 157.893C190.595 158.006 190.506 158.097 190.394 158.146L182.619 161.354C182.605 161.397 182.605 161.443 182.619 161.486C182.709 161.671 182.87 161.814 183.065 161.881C183.542 161.968 184.034 161.923 184.486 161.749L193.043 159.445C193.154 159.427 193.268 159.45 193.363 159.509C193.459 159.569 193.53 159.66 193.563 159.768C193.597 159.875 193.59 159.991 193.545 160.094C193.499 160.197 193.418 160.28 193.317 160.328L187.836 162.358C187.359 162.531 186.263 163.008 186.364 163.668C186.374 163.745 186.4 163.819 186.44 163.885C186.48 163.952 186.534 164.009 186.597 164.054C187.206 164.35 187.899 164.425 188.556 164.267C192.848 163.618 197.2 163.455 201.528 163.779C202.036 163.779 202.543 163.779 203.061 163.779C204.142 163.707 205.228 163.806 206.278 164.074C207.871 164.63 209.391 165.377 210.805 166.297C211.455 166.672 212.094 167.048 212.713 167.373C215.86 169.024 219 170.688 222.133 172.366C222.187 172.394 222.236 172.433 222.276 172.48C222.315 172.527 222.345 172.581 222.363 172.64C222.381 172.699 222.387 172.761 222.38 172.822C222.374 172.883 222.355 172.942 222.325 172.996C222.282 173.104 222.199 173.192 222.092 173.239Z" fill="#231F20"/>
<path d="M213.495 108.087C211.394 109.315 200.128 134.649 195.225 146.738Z" fill="white"/>
<path d="M195.256 147.204C195.179 147.205 195.104 147.186 195.036 147.151C194.968 147.115 194.91 147.064 194.867 147.001C194.824 146.937 194.797 146.865 194.789 146.789C194.781 146.713 194.791 146.636 194.819 146.565C199.255 135.572 210.866 109.081 213.262 107.68C213.314 107.646 213.374 107.623 213.436 107.612C213.497 107.601 213.561 107.602 213.622 107.617C213.684 107.631 213.741 107.657 213.792 107.694C213.843 107.732 213.886 107.779 213.918 107.833C213.95 107.887 213.971 107.947 213.979 108.009C213.988 108.071 213.983 108.135 213.967 108.196C213.95 108.256 213.921 108.313 213.882 108.362C213.843 108.411 213.794 108.452 213.739 108.482C211.942 109.497 201.224 133.177 195.682 146.91C195.649 146.996 195.591 147.071 195.515 147.123C195.438 147.176 195.348 147.204 195.256 147.204Z" fill="#231F20"/>
<path d="M133.168 156.796L132.589 161.953L198.412 190.302L198.615 184.881L133.168 156.796Z" fill="white"/>
<path d="M198.412 190.809C198.345 190.824 198.276 190.824 198.209 190.809L132.386 162.46C132.285 162.417 132.201 162.342 132.146 162.247C132.091 162.152 132.069 162.041 132.082 161.932L132.66 156.776C132.668 156.697 132.695 156.622 132.74 156.556C132.784 156.491 132.844 156.437 132.914 156.401C132.984 156.363 133.063 156.344 133.142 156.344C133.222 156.344 133.301 156.363 133.371 156.401L198.818 184.465C198.913 184.505 198.993 184.573 199.048 184.661C199.102 184.748 199.128 184.85 199.123 184.953L198.92 190.373C198.915 190.456 198.89 190.538 198.848 190.61C198.806 190.683 198.747 190.744 198.676 190.789C198.592 190.82 198.5 190.827 198.412 190.809V190.809ZM133.127 161.638L197.925 189.54L198.097 185.196L133.594 157.517L133.127 161.638Z" fill="#231F20"/>
<path d="M133.168 156.796C133.168 156.796 152.341 147.601 152.829 147.864C153.316 148.128 221.128 175.269 221.128 175.269L198.615 184.882L133.168 156.796Z" fill="white"/>
<path d="M198.615 185.389C198.548 185.403 198.479 185.403 198.412 185.389L132.965 157.264C132.876 157.225 132.8 157.161 132.746 157.08C132.692 156.999 132.662 156.904 132.66 156.807C132.657 156.71 132.682 156.614 132.733 156.531C132.783 156.448 132.857 156.381 132.945 156.34C152.362 147.022 152.788 147.256 153.072 147.418C154.087 147.875 220.651 174.529 221.321 174.823C221.415 174.859 221.496 174.923 221.552 175.006C221.609 175.09 221.638 175.189 221.635 175.29C221.637 175.389 221.609 175.487 221.555 175.57C221.5 175.653 221.422 175.718 221.331 175.757L198.818 185.369C198.753 185.39 198.683 185.397 198.615 185.389V185.389ZM134.396 156.766L198.615 184.334L219.798 175.331C209.323 171.128 156.097 149.824 152.747 148.423C151.428 148.727 141.278 153.478 134.396 156.766Z" fill="#231F20"/>
<path d="M198.412 190.302L220.285 180.121L221.128 175.27L198.615 184.882L198.412 190.302Z" fill="white"/>
<path d="M198.412 190.809C198.311 190.813 198.211 190.785 198.128 190.728C198.054 190.68 197.994 190.614 197.955 190.535C197.915 190.457 197.898 190.369 197.905 190.281L198.108 184.861C198.113 184.766 198.145 184.675 198.198 184.596C198.252 184.517 198.326 184.455 198.412 184.415L220.935 174.803C221.018 174.766 221.109 174.753 221.199 174.766C221.289 174.778 221.373 174.816 221.443 174.874C221.517 174.928 221.574 175.004 221.606 175.09C221.639 175.177 221.645 175.271 221.625 175.361L220.793 180.202C220.777 180.282 220.743 180.358 220.694 180.423C220.645 180.488 220.581 180.541 220.509 180.578L198.625 190.728C198.561 190.77 198.488 190.798 198.412 190.809V190.809ZM199.113 185.227L198.94 189.54L219.829 179.817L220.458 176.142L199.113 185.227Z" fill="#231F20"/>
<path d="M133.168 156.796L131.818 109.162L200.726 140.8L198.615 184.881L133.168 156.796Z" fill="white"/>
<path d="M198.615 185.389C198.548 185.404 198.479 185.404 198.412 185.389L132.965 157.264C132.875 157.226 132.798 157.162 132.744 157.081C132.69 157 132.661 156.905 132.66 156.807L131.3 109.173C131.299 109.086 131.319 109.001 131.36 108.924C131.401 108.848 131.461 108.783 131.534 108.737C131.608 108.695 131.692 108.673 131.777 108.673C131.863 108.673 131.947 108.695 132.021 108.737L200.97 140.344C201.062 140.383 201.14 140.45 201.193 140.536C201.245 140.621 201.27 140.721 201.264 140.821L199.153 184.902C199.15 184.984 199.127 185.063 199.086 185.134C199.045 185.204 198.988 185.264 198.92 185.308C198.831 185.371 198.723 185.399 198.615 185.389V185.389ZM133.655 156.452L198.138 184.131L200.168 141.115L132.346 109.965L133.655 156.452Z" fill="#231F20"/>
<path d="M235.307 182.436C235.237 182.45 235.164 182.45 235.094 182.436L221.158 176.011C221.051 175.962 220.964 175.878 220.912 175.772C220.861 175.667 220.847 175.547 220.874 175.432L225.086 157.812C225.113 157.685 225.189 157.573 225.297 157.501C225.405 157.429 225.537 157.402 225.665 157.426L252.907 161.79L252.014 118.612C252.011 118.545 252.022 118.479 252.046 118.416C252.07 118.353 252.106 118.296 252.152 118.247C252.199 118.199 252.255 118.161 252.316 118.134C252.378 118.108 252.444 118.095 252.511 118.095V118.095C252.644 118.097 252.77 118.15 252.864 118.243C252.958 118.335 253.014 118.46 253.019 118.592L253.922 162.379C253.923 162.453 253.907 162.526 253.875 162.593C253.844 162.66 253.797 162.719 253.74 162.765C253.685 162.814 253.62 162.85 253.55 162.871C253.48 162.892 253.406 162.898 253.334 162.887L225.929 158.502L221.919 175.26L235.48 181.421C235.54 181.448 235.595 181.487 235.64 181.536C235.685 181.584 235.72 181.642 235.743 181.704C235.766 181.767 235.776 181.833 235.772 181.899C235.769 181.966 235.752 182.031 235.723 182.09C235.695 182.182 235.64 182.263 235.566 182.325C235.492 182.386 235.402 182.424 235.307 182.436V182.436Z" fill="#231F20"/>
<path d="M114.532 218.843C112.167 217.057 109.335 216.113 107.336 218.843H114.532Z" fill="white"/>
<path d="M114.533 219.31H107.336C107.251 219.309 107.167 219.285 107.093 219.241C107.02 219.196 106.96 219.133 106.92 219.057C106.875 218.983 106.852 218.899 106.852 218.813C106.852 218.727 106.875 218.643 106.92 218.57C107.245 218.081 107.667 217.664 108.159 217.344C108.651 217.025 109.204 216.81 109.782 216.712C111.254 216.489 112.939 217.088 114.776 218.478C114.853 218.538 114.909 218.619 114.938 218.712C114.967 218.804 114.967 218.903 114.939 218.996C114.907 219.081 114.852 219.155 114.78 219.211C114.709 219.267 114.623 219.301 114.533 219.31ZM108.372 218.387H112.99C112.085 217.808 111.016 217.541 109.945 217.626C109.357 217.72 108.81 217.985 108.372 218.387V218.387Z" fill="#231F20"/>
<path d="M166.389 203.598H166.307C166.176 203.576 166.059 203.502 165.981 203.394C165.903 203.286 165.871 203.151 165.891 203.019C165.973 202.512 167.921 190.596 171.687 184.546C171.762 184.444 171.873 184.373 171.998 184.349C172.123 184.324 172.252 184.348 172.361 184.414C172.469 184.48 172.549 184.585 172.584 184.707C172.619 184.83 172.607 184.961 172.55 185.074C168.926 190.951 166.906 203.06 166.886 203.182C166.867 203.299 166.806 203.406 166.714 203.482C166.623 203.559 166.508 203.6 166.389 203.598V203.598Z" fill="white"/>
<path d="M229.116 115.131L230.151 118.602L217.21 145.256L220.894 154.787L228.974 147.895L232.293 118.582L234.008 116.816L232.242 113.862L229.116 115.131Z" fill="#231F20"/>
<path d="M314.356 138.679V261.25H88.041V138.679L201.203 215.738L314.356 138.679Z" fill="white"/>
<path d="M314.355 261.758H88.0104C87.8758 261.758 87.7468 261.704 87.6516 261.609C87.5564 261.514 87.5029 261.385 87.5029 261.25V138.679C87.5025 138.586 87.528 138.496 87.5764 138.417C87.6248 138.338 87.6943 138.274 87.777 138.232C87.8569 138.185 87.948 138.16 88.0409 138.16C88.1337 138.16 88.2249 138.185 88.3048 138.232L201.173 215.108L314.041 138.232C314.119 138.185 314.208 138.16 314.3 138.16C314.391 138.16 314.48 138.185 314.558 138.232C314.642 138.273 314.712 138.337 314.761 138.416C314.809 138.495 314.834 138.586 314.832 138.679V261.25C314.833 261.38 314.783 261.504 314.695 261.599C314.606 261.693 314.485 261.75 314.355 261.758ZM88.5484 260.743H313.878V139.633L201.518 216.164C201.433 216.218 201.334 216.247 201.234 216.247C201.133 216.247 201.034 216.218 200.949 216.164L88.5484 139.633V260.743Z" fill="#231F20"/>
<path d="M201.203 216.245C201.103 216.245 201.005 216.216 200.919 216.164L87.7569 139.095C87.6473 139.019 87.572 138.903 87.5474 138.772C87.5227 138.641 87.5505 138.505 87.625 138.395C87.7013 138.283 87.8184 138.205 87.9512 138.179C88.0841 138.152 88.222 138.179 88.3355 138.252L201.203 215.129L314.071 138.252C314.183 138.179 314.32 138.153 314.451 138.179C314.582 138.206 314.697 138.283 314.772 138.395C314.81 138.449 314.837 138.51 314.851 138.575C314.865 138.64 314.866 138.707 314.854 138.773C314.841 138.838 314.816 138.9 314.779 138.955C314.743 139.011 314.695 139.058 314.64 139.095L201.488 216.164C201.402 216.215 201.304 216.243 201.203 216.245V216.245Z" fill="#231F20"/>
<path d="M88.041 261.25L201.193 190.718L314.356 261.25H88.041Z" fill="white"/>
<path d="M314.355 261.758H88.0104C87.9006 261.758 87.7938 261.722 87.7059 261.656C87.6181 261.59 87.554 261.498 87.5232 261.392C87.492 261.286 87.4969 261.173 87.5374 261.07C87.5778 260.967 87.6514 260.88 87.7465 260.824L200.97 190.292C201.051 190.242 201.144 190.216 201.239 190.216C201.334 190.216 201.427 190.242 201.508 190.292L314.65 260.824C314.745 260.88 314.819 260.967 314.859 261.07C314.899 261.173 314.904 261.286 314.873 261.392C314.841 261.503 314.772 261.599 314.678 261.666C314.584 261.732 314.47 261.765 314.355 261.758ZM89.8171 260.743H312.62L201.244 191.317L89.8171 260.743Z" fill="#231F20"/>
<path d="M322.06 200.362L258.799 216.534L267.764 251.601L331.024 235.429L322.06 200.362Z" fill="#03DAC6"/>
<path d="M267.767 252.115C267.675 252.112 267.584 252.088 267.503 252.044C267.39 251.97 267.308 251.859 267.27 251.73L258.307 216.661C258.276 216.531 258.297 216.393 258.365 216.278C258.433 216.163 258.543 216.078 258.673 216.042L321.937 199.873C322.062 199.827 322.199 199.827 322.323 199.873C322.382 199.907 322.433 199.952 322.473 200.006C322.513 200.06 322.542 200.122 322.557 200.188L331.519 235.256C331.536 235.321 331.54 235.388 331.53 235.454C331.521 235.52 331.499 235.584 331.465 235.642C331.431 235.699 331.386 235.749 331.333 235.789C331.279 235.83 331.218 235.859 331.154 235.875L267.889 252.044L267.767 252.115ZM259.424 216.946L268.132 251.029L330.413 235.104L321.755 200.98L259.424 216.946Z" fill="#231F20"/>
<path d="M267.767 251.608L294.37 223.848L331.032 235.429L267.767 251.608Z" fill="#03DAC6"/>
<path d="M267.767 252.115C267.678 252.114 267.591 252.091 267.515 252.046C267.438 252.002 267.375 251.938 267.33 251.861C267.271 251.767 267.245 251.655 267.258 251.544C267.271 251.433 267.322 251.33 267.402 251.252L294.005 223.502C294.07 223.433 294.152 223.384 294.244 223.359C294.335 223.334 294.431 223.334 294.522 223.36L331.184 234.951C331.289 234.984 331.381 235.051 331.445 235.141C331.509 235.23 331.542 235.338 331.539 235.449C331.534 235.559 331.494 235.665 331.425 235.751C331.355 235.836 331.26 235.898 331.154 235.926L267.889 252.095L267.767 252.115ZM294.522 224.426L269.36 250.674L329.185 235.378L294.522 224.426Z" fill="#231F20"/>
<path d="M258.805 216.539L295.913 229.877L322.07 200.36L258.805 216.539Z" fill="#03DAC6"/>
<path d="M295.913 230.384C295.856 230.394 295.798 230.394 295.741 230.384L258.632 217.047C258.531 217.01 258.444 216.942 258.383 216.853C258.323 216.763 258.293 216.657 258.297 216.549C258.302 216.44 258.34 216.336 258.408 216.25C258.475 216.164 258.568 216.102 258.673 216.072L321.938 199.903C322.042 199.878 322.153 199.886 322.253 199.926C322.353 199.966 322.438 200.036 322.496 200.127C322.555 200.22 322.582 200.33 322.573 200.44C322.563 200.55 322.519 200.653 322.445 200.736L296.289 230.242C296.24 230.291 296.181 230.329 296.116 230.353C296.051 230.378 295.982 230.388 295.913 230.384V230.384ZM260.53 216.62L295.761 229.277L320.588 201.264L260.53 216.62Z" fill="#231F20"/>
<path d="M355.581 167.439L319.479 176.367L324.427 196.379L360.529 187.451L355.581 167.439Z" fill="#03DAC6"/>
<path d="M324.424 196.879C324.311 196.878 324.2 196.84 324.11 196.77C324.02 196.701 323.956 196.603 323.927 196.493L318.984 176.488C318.953 176.357 318.973 176.22 319.042 176.104C319.11 175.989 319.22 175.904 319.349 175.869L355.453 166.947C355.517 166.929 355.584 166.924 355.65 166.932C355.716 166.941 355.779 166.963 355.836 166.998C355.893 167.032 355.943 167.077 355.982 167.132C356.02 167.186 356.048 167.247 356.062 167.312L361.015 187.318C361.031 187.383 361.034 187.45 361.023 187.517C361.013 187.583 360.989 187.646 360.954 187.703C360.921 187.762 360.875 187.813 360.821 187.853C360.767 187.893 360.705 187.922 360.639 187.937L324.546 196.859L324.424 196.879ZM320.09 176.731L324.8 195.752L359.909 187.074L355.25 168.053L320.09 176.731Z" fill="#231F20"/>
<path d="M324.424 196.372L339.7 180.68L360.518 187.44L324.424 196.372Z" fill="#03DAC6"/>
<path d="M324.424 196.879C324.335 196.881 324.247 196.858 324.171 196.813C324.094 196.768 324.03 196.703 323.988 196.625C323.932 196.53 323.908 196.419 323.921 196.309C323.934 196.199 323.982 196.096 324.059 196.016L339.335 180.335C339.399 180.266 339.482 180.217 339.574 180.193C339.666 180.17 339.762 180.173 339.852 180.203L360.68 186.962C360.815 186.962 360.944 187.016 361.039 187.111C361.134 187.206 361.187 187.335 361.187 187.47C361.187 187.605 361.134 187.734 361.039 187.829C360.944 187.924 360.815 187.977 360.68 187.977L324.587 196.899L324.424 196.879ZM339.842 181.268L326.028 195.478L358.67 187.409L339.842 181.268Z" fill="#231F20"/>
<path d="M319.471 176.366L340.543 184.12L355.575 167.434L319.471 176.366Z" fill="#03DAC6"/>
<path d="M340.553 184.628C340.492 184.638 340.43 184.638 340.37 184.628L319.299 176.873C319.197 176.835 319.111 176.764 319.053 176.673C318.994 176.582 318.967 176.474 318.974 176.366C318.977 176.258 319.016 176.154 319.083 176.07C319.151 175.985 319.244 175.925 319.349 175.899L355.453 166.977C355.558 166.95 355.668 166.957 355.769 166.997C355.869 167.037 355.954 167.109 356.011 167.2C356.067 167.295 356.091 167.405 356.08 167.515C356.069 167.624 356.024 167.728 355.95 167.809L340.928 184.466C340.829 184.566 340.694 184.624 340.553 184.628V184.628ZM321.207 176.508L340.4 183.613L354.093 168.388L321.207 176.508Z" fill="#231F20"/>
<path d="M301.79 162.393L272.202 175.641L279.543 192.038L309.132 178.79L301.79 162.393Z" fill="#03DAC6"/>
<path d="M279.551 192.586C279.453 192.588 279.356 192.561 279.273 192.509C279.19 192.457 279.125 192.381 279.084 192.291L271.746 175.889C271.717 175.828 271.701 175.763 271.699 175.696C271.696 175.629 271.707 175.562 271.73 175.5C271.754 175.437 271.79 175.38 271.837 175.332C271.883 175.284 271.938 175.245 272 175.219L301.577 161.973C301.701 161.918 301.842 161.913 301.969 161.961C302.096 162.008 302.2 162.104 302.257 162.227L309.575 178.579C309.626 178.702 309.626 178.841 309.575 178.964C309.524 179.088 309.43 179.188 309.311 179.248L279.724 192.443C279.677 192.503 279.619 192.551 279.551 192.586V192.586ZM272.873 175.94L279.805 191.408L308.459 178.579L301.536 163.11L272.873 175.94Z" fill="#231F20"/>
<path d="M279.551 192.027L290.219 176.213L309.128 178.781L279.551 192.027Z" fill="#03DAC6"/>
<path d="M279.551 192.585C279.457 192.59 279.363 192.568 279.281 192.522C279.199 192.476 279.132 192.407 279.087 192.324C279.043 192.241 279.022 192.147 279.029 192.053C279.036 191.96 279.069 191.869 279.125 191.793L289.803 175.98C289.855 175.901 289.928 175.838 290.014 175.799C290.1 175.759 290.196 175.745 290.29 175.756L309.199 178.335C309.308 178.349 309.41 178.398 309.489 178.475C309.567 178.552 309.619 178.652 309.636 178.761C309.65 178.87 309.63 178.981 309.577 179.078C309.524 179.175 309.441 179.252 309.341 179.299L279.754 192.494C279.694 192.539 279.625 192.57 279.551 192.585V192.585ZM290.462 176.802L280.962 190.89L307.301 179.096L290.462 176.802Z" fill="#231F20"/>
<path d="M272.203 175.635L291.488 179.025L301.79 162.389L272.203 175.635Z" fill="#03DAC6"/>
<path d="M291.478 179.533H291.396L272.111 176.143C272.006 176.123 271.909 176.071 271.836 175.992C271.763 175.913 271.717 175.813 271.705 175.706C271.691 175.598 271.712 175.489 271.765 175.394C271.818 175.299 271.901 175.223 272 175.178L301.577 161.933C301.678 161.888 301.79 161.877 301.898 161.9C302.006 161.924 302.103 161.982 302.176 162.064C302.241 162.151 302.276 162.256 302.276 162.364C302.276 162.472 302.241 162.577 302.176 162.663L291.873 179.309C291.829 179.374 291.77 179.428 291.701 179.467C291.633 179.505 291.556 179.528 291.478 179.533V179.533ZM273.918 175.473L291.234 178.518L300.491 163.577L273.918 175.473Z" fill="#231F20"/>
<path d="M171.972 44.7511H112.452C110.586 44.7511 108.797 45.4922 107.478 46.8113C106.159 48.1304 105.418 49.9195 105.418 51.785V82.235C105.418 83.1588 105.6 84.0734 105.953 84.9268C106.307 85.7802 106.825 86.5556 107.478 87.2088C108.131 87.862 108.907 88.3801 109.76 88.7336C110.614 89.0871 111.528 89.269 112.452 89.269H165.445L171.758 100.089L171.84 89.269H172.012C172.936 89.269 173.85 89.0871 174.704 88.7336C175.557 88.3801 176.333 87.862 176.986 87.2088C177.639 86.5556 178.157 85.7802 178.511 84.9268C178.864 84.0734 179.046 83.1588 179.046 82.235V51.785C179.046 50.8579 178.863 49.9399 178.507 49.0839C178.151 48.2278 177.629 47.4506 176.972 46.7969C176.314 46.1432 175.534 45.6259 174.676 45.2748C173.818 44.9237 172.899 44.7457 171.972 44.7511Z" fill="white"/>
<path d="M171.717 100.596C171.629 100.595 171.542 100.572 171.465 100.527C171.389 100.483 171.325 100.419 171.281 100.342L165.12 89.7761H112.452C110.452 89.7734 108.536 88.978 107.122 87.5643C105.708 86.1505 104.913 84.2339 104.91 82.2346V51.7846C104.913 49.7853 105.708 47.8687 107.122 46.455C108.536 45.0413 110.452 44.2458 112.452 44.2432H171.971C173.971 44.2432 175.89 45.0377 177.304 46.452C178.718 47.8663 179.513 49.7845 179.513 51.7846V82.2346C179.512 84.1763 178.762 86.0428 177.42 87.4457C176.078 88.8486 174.246 89.6797 172.306 89.7659L172.225 100.099C172.226 100.209 172.189 100.316 172.121 100.403C172.052 100.489 171.957 100.55 171.849 100.576C171.808 100.593 171.762 100.6 171.717 100.596V100.596ZM112.452 45.2582C110.722 45.2608 109.063 45.9493 107.84 47.1727C106.616 48.396 105.928 50.0545 105.925 51.7846V82.2346C105.928 83.9647 106.616 85.6232 107.84 86.8465C109.063 88.0699 110.722 88.7584 112.452 88.7611H165.445C165.535 88.7598 165.624 88.7827 165.703 88.8273C165.781 88.8719 165.846 88.9366 165.891 89.0148L171.271 98.2412L171.332 89.2686C171.332 89.134 171.385 89.0049 171.48 88.9097C171.576 88.8145 171.705 88.7611 171.839 88.7611H172.012C173.742 88.7584 175.4 88.0699 176.624 86.8465C177.847 85.6232 178.536 83.9647 178.538 82.2346V51.7846C178.538 50.0537 177.851 48.3937 176.627 47.1697C175.403 45.9458 173.743 45.2582 172.012 45.2582H112.452Z" fill="#231F20"/>
<path d="M132.407 68.6034L159.081 52.2822L136.477 61.6913L132.407 68.6034Z" fill="#231F20"/>
<path d="M132.406 69.1104C132.273 69.1085 132.145 69.0537 132.051 68.9581C131.972 68.8778 131.921 68.7739 131.907 68.6622C131.892 68.5504 131.914 68.4369 131.97 68.339L136.03 61.437C136.085 61.3407 136.171 61.2657 136.274 61.2238L158.878 51.8046C158.996 51.7554 159.129 51.7527 159.249 51.7971C159.369 51.8415 159.468 51.9298 159.526 52.0441C159.583 52.1585 159.596 52.2905 159.56 52.4136C159.525 52.5367 159.444 52.6419 159.334 52.708L132.67 69.0292C132.592 69.0801 132.5 69.1082 132.406 69.1104ZM136.832 62.0967L133.878 67.1007L153.265 55.2658L136.832 62.0967Z" fill="#231F20"/>
<path d="M136.477 61.6913L145.206 66.1471L159.081 52.2822L136.477 61.6913Z" fill="#03DAC6"/>
<path d="M145.206 66.6136C145.136 66.6287 145.063 66.6287 144.993 66.6136L136.274 62.1578C136.18 62.1144 136.103 62.041 136.055 61.9492C136.007 61.8573 135.991 61.7521 136.01 61.6503C136.012 61.5621 136.04 61.4765 136.091 61.4042C136.141 61.332 136.212 61.2763 136.294 61.2443L158.898 51.8251C158.997 51.789 159.106 51.7875 159.205 51.8208C159.305 51.8541 159.391 51.9202 159.449 52.0084C159.506 52.0966 159.533 52.2017 159.523 52.3066C159.513 52.4116 159.468 52.5101 159.396 52.5863L145.531 66.4715C145.445 66.5588 145.328 66.6097 145.206 66.6136V66.6136ZM137.583 61.7315L145.145 65.5783L157.122 53.6115L137.583 61.7315Z" fill="#231F20"/>
<path d="M159.081 52.2822L130.366 59.1335L123.84 55.4084L159.081 52.2822Z" fill="#03DAC6"/>
<path d="M130.367 59.6205C130.288 59.6206 130.211 59.5996 130.143 59.5595L123.607 55.8243C123.522 55.7753 123.455 55.7009 123.415 55.6117C123.375 55.5224 123.364 55.4228 123.383 55.327C123.405 55.2297 123.457 55.1417 123.532 55.0759C123.606 55.0102 123.7 54.9701 123.8 54.9616L159.04 51.8354C159.156 51.8305 159.269 51.8666 159.36 51.9372C159.451 52.0078 159.514 52.1084 159.538 52.2211C159.557 52.3363 159.532 52.4544 159.468 52.5521C159.404 52.6498 159.306 52.72 159.193 52.7489L130.478 59.6205H130.367ZM125.353 55.7533L130.428 58.6664L152.758 53.3173L125.353 55.7533Z" fill="#231F20"/>
<path d="M130.367 59.1335L132.407 68.6034L136.477 61.6913L159.081 52.2822L130.367 59.1335Z" fill="#03DAC6"/>
<path d="M132.407 69.06H132.336C132.243 69.045 132.157 69.0019 132.09 68.9365C132.023 68.8712 131.978 68.7867 131.96 68.6946L129.93 59.2348C129.917 59.1762 129.915 59.1154 129.925 59.0561C129.935 58.9967 129.957 58.94 129.989 58.889C130.021 58.8381 130.063 58.794 130.112 58.7593C130.161 58.7246 130.216 58.6999 130.275 58.6867L158.979 51.8253C159.093 51.8008 159.213 51.8181 159.315 51.8739C159.417 51.9298 159.496 52.0206 159.538 52.1298C159.572 52.2418 159.565 52.3628 159.516 52.4695C159.467 52.5762 159.381 52.6613 159.274 52.7084L136.802 62.0565L132.813 68.8367C132.77 68.9054 132.71 68.9619 132.639 69.001C132.568 69.0401 132.488 69.0604 132.407 69.06V69.06ZM130.935 59.4784L132.63 67.3447L136.101 61.4577C136.152 61.3705 136.231 61.3026 136.325 61.2648L153.58 54.0685L130.935 59.4784Z" fill="#231F20"/>
<path d="M135.071 75.0117C135.014 74.5347 134.785 74.1644 134.383 73.9008C133.982 73.6371 133.489 73.5053 132.905 73.5053C132.478 73.5053 132.105 73.5744 131.785 73.7125C131.468 73.8505 131.22 74.0404 131.041 74.2821C130.865 74.5237 130.777 74.7983 130.777 75.1058C130.777 75.3632 130.839 75.5844 130.961 75.7696C131.087 75.9516 131.247 76.1038 131.441 76.2262C131.636 76.3454 131.84 76.4443 132.053 76.5228C132.267 76.5981 132.463 76.6593 132.642 76.7063L133.621 76.97C133.872 77.0359 134.151 77.1269 134.459 77.243C134.769 77.3591 135.066 77.5176 135.348 77.7184C135.634 77.9161 135.869 78.1703 136.054 78.481C136.24 78.7917 136.332 79.173 136.332 79.6249C136.332 80.1458 136.196 80.6166 135.923 81.0371C135.653 81.4576 135.257 81.7919 134.736 82.0398C134.218 82.2877 133.589 82.4117 132.849 82.4117C132.158 82.4117 131.56 82.3002 131.055 82.0774C130.553 81.8546 130.158 81.5439 129.869 81.1454C129.583 80.7468 129.422 80.2839 129.384 79.7567H130.589C130.62 80.1207 130.743 80.422 130.956 80.6605C131.173 80.8959 131.446 81.0716 131.775 81.1877C132.108 81.3007 132.466 81.3572 132.849 81.3572C133.294 81.3572 133.694 81.285 134.049 81.1407C134.404 80.9932 134.685 80.7892 134.892 80.5287C135.099 80.2651 135.202 79.9576 135.202 79.6061C135.202 79.286 135.113 79.0255 134.934 78.8247C134.755 78.6238 134.52 78.4606 134.228 78.3351C133.936 78.2096 133.621 78.0997 133.282 78.0056L132.095 77.6666C131.342 77.4501 130.746 77.141 130.307 76.7393C129.867 76.3376 129.648 75.8119 129.648 75.1623C129.648 74.6226 129.794 74.1518 130.085 73.7501C130.38 73.3453 130.776 73.0315 131.272 72.8087C131.771 72.5827 132.328 72.4697 132.943 72.4697C133.564 72.4697 134.116 72.5811 134.6 72.8039C135.083 73.0236 135.466 73.3249 135.748 73.7078C136.034 74.0906 136.185 74.5253 136.2 75.0117H135.071ZM141.132 82.3928C140.436 82.3928 139.835 82.239 139.329 81.9315C138.827 81.6208 138.44 81.1877 138.167 80.6323C137.897 80.0737 137.762 79.4241 137.762 78.6834C137.762 77.9428 137.897 77.2901 138.167 76.7252C138.44 76.1572 138.82 75.7147 139.306 75.3977C139.796 75.0776 140.367 74.9175 141.019 74.9175C141.396 74.9175 141.768 74.9803 142.135 75.1058C142.502 75.2314 142.836 75.4354 143.138 75.7178C143.439 75.9971 143.679 76.3674 143.858 76.8287C144.037 77.2901 144.126 77.8581 144.126 78.5328V79.0035H138.553V78.0432H142.997C142.997 77.6353 142.915 77.2712 142.752 76.9511C142.592 76.631 142.363 76.3784 142.064 76.1932C141.769 76.0081 141.421 75.9155 141.019 75.9155C140.577 75.9155 140.194 76.0253 139.871 76.245C139.551 76.4616 139.304 76.744 139.132 77.0923C138.959 77.4407 138.873 77.8141 138.873 78.2127V78.8529C138.873 79.3989 138.967 79.8618 139.155 80.2416C139.347 80.6182 139.612 80.9053 139.951 81.103C140.29 81.2976 140.684 81.3949 141.132 81.3949C141.424 81.3949 141.688 81.3541 141.923 81.2725C142.162 81.1877 142.367 81.0622 142.54 80.8959C142.713 80.7264 142.846 80.5162 142.94 80.2651L144.013 80.5664C143.9 80.9304 143.71 81.2505 143.444 81.5267C143.177 81.7997 142.847 82.0131 142.455 82.1669C142.063 82.3175 141.622 82.3928 141.132 82.3928ZM146.927 77.8926V82.2422H145.816V75.0117H146.889V76.1415H146.984C147.153 75.7743 147.41 75.4793 147.756 75.2565C148.101 75.0305 148.546 74.9175 149.093 74.9175C149.582 74.9175 150.01 75.018 150.378 75.2188C150.745 75.4165 151.03 75.7178 151.234 76.1226C151.438 76.5243 151.54 77.0327 151.54 77.6478V82.2422H150.429V77.7231C150.429 77.1551 150.282 76.7126 149.987 76.3957C149.692 76.0756 149.287 75.9155 148.772 75.9155C148.418 75.9155 148.101 75.9924 147.822 76.1462C147.545 76.2999 147.327 76.5243 147.167 76.8193C147.007 77.1143 146.927 77.4721 146.927 77.8926ZM156.715 75.0117V75.9532H152.968V75.0117H156.715ZM154.06 73.2794H155.171V80.171C155.171 80.4848 155.216 80.7201 155.307 80.8771C155.402 81.0308 155.521 81.1344 155.665 81.1877C155.813 81.238 155.968 81.2631 156.131 81.2631C156.254 81.2631 156.354 81.2568 156.432 81.2442C156.511 81.2285 156.574 81.216 156.621 81.2066L156.847 82.2045C156.771 82.2328 156.666 82.261 156.531 82.2893C156.396 82.3206 156.225 82.3363 156.018 82.3363C155.704 82.3363 155.397 82.2689 155.096 82.1339C154.797 81.999 154.55 81.7934 154.352 81.5173C154.157 81.2411 154.06 80.8927 154.06 80.4722V73.2794Z" fill="black"/>
<path d="M167.881 249.273C167.746 249.273 167.617 249.22 167.522 249.125C167.427 249.03 167.373 248.901 167.373 248.766C167.373 248.631 167.427 248.502 167.522 248.407C167.617 248.312 167.746 248.258 167.881 248.258C169.231 248.258 170.581 248.258 171.941 248.157C172.075 248.157 172.205 248.21 172.3 248.306C172.395 248.401 172.448 248.53 172.448 248.664C172.448 248.799 172.395 248.928 172.3 249.023C172.205 249.118 172.075 249.172 171.941 249.172C170.581 249.223 169.221 249.253 167.881 249.273ZM163.821 249.273C162.471 249.273 161.111 249.273 159.761 249.172C159.628 249.167 159.503 249.109 159.412 249.013C159.32 248.916 159.271 248.787 159.274 248.654C159.281 248.52 159.341 248.393 159.439 248.301C159.537 248.208 159.667 248.157 159.802 248.157C161.151 248.208 162.491 248.238 163.862 248.258C163.996 248.258 164.125 248.312 164.22 248.407C164.316 248.502 164.369 248.631 164.369 248.766C164.369 248.901 164.316 249.03 164.22 249.125C164.125 249.22 163.996 249.273 163.862 249.273H163.821ZM176.001 248.989C175.872 248.989 175.749 248.94 175.656 248.851C175.563 248.762 175.509 248.641 175.504 248.512C175.499 248.446 175.509 248.379 175.53 248.316C175.552 248.252 175.586 248.194 175.63 248.144C175.675 248.094 175.728 248.053 175.789 248.024C175.849 247.995 175.914 247.978 175.981 247.974C177.32 247.903 178.67 247.812 180.041 247.7C180.107 247.695 180.173 247.702 180.236 247.723C180.3 247.744 180.358 247.777 180.408 247.82C180.458 247.864 180.499 247.917 180.528 247.976C180.558 248.036 180.575 248.101 180.579 248.167C180.584 248.234 180.576 248.301 180.556 248.365C180.535 248.428 180.503 248.487 180.459 248.538C180.416 248.589 180.363 248.631 180.303 248.661C180.243 248.692 180.178 248.71 180.112 248.715C178.762 248.817 177.412 248.908 176.052 248.989H176.001ZM155.701 248.989C154.341 248.908 152.991 248.817 151.641 248.705C151.574 248.7 151.509 248.681 151.45 248.651C151.39 248.62 151.337 248.579 151.294 248.528C151.251 248.477 151.218 248.418 151.197 248.354C151.177 248.291 151.169 248.224 151.174 248.157C151.179 248.09 151.198 248.025 151.228 247.966C151.259 247.906 151.3 247.853 151.351 247.81C151.402 247.767 151.461 247.734 151.525 247.713C151.588 247.693 151.655 247.685 151.722 247.69C153.072 247.802 154.412 247.893 155.782 247.974C155.917 247.974 156.046 248.028 156.141 248.123C156.236 248.218 156.29 248.347 156.29 248.482C156.29 248.616 156.236 248.745 156.141 248.841C156.046 248.936 155.917 248.989 155.782 248.989H155.701ZM184.121 248.35C183.996 248.346 183.876 248.298 183.783 248.215C183.69 248.131 183.63 248.017 183.613 247.893C183.606 247.826 183.613 247.759 183.632 247.695C183.651 247.63 183.683 247.571 183.725 247.519C183.768 247.467 183.82 247.424 183.879 247.392C183.939 247.361 184.003 247.341 184.07 247.335C185.423 247.193 186.777 247.04 188.13 246.878C188.197 246.869 188.264 246.874 188.329 246.891C188.394 246.909 188.455 246.939 188.508 246.98C188.562 247.021 188.606 247.072 188.64 247.13C188.673 247.189 188.695 247.253 188.704 247.32C188.712 247.386 188.708 247.454 188.69 247.519C188.673 247.584 188.643 247.645 188.602 247.698C188.561 247.751 188.51 247.796 188.451 247.829C188.393 247.863 188.329 247.884 188.262 247.893C186.909 248.069 185.555 248.221 184.202 248.35H184.121ZM147.652 248.35H147.601C146.251 248.198 144.901 248.035 143.541 247.863C143.407 247.845 143.284 247.775 143.202 247.667C143.119 247.56 143.082 247.424 143.1 247.289C143.117 247.155 143.187 247.032 143.295 246.95C143.403 246.867 143.539 246.83 143.673 246.848C145.003 247.02 146.343 247.183 147.733 247.325C147.868 247.333 147.994 247.394 148.083 247.495C148.173 247.596 148.218 247.728 148.21 247.863C148.202 247.997 148.141 248.123 148.04 248.213C147.939 248.302 147.807 248.348 147.672 248.34L147.652 248.35ZM192.18 247.335C192.06 247.334 191.944 247.291 191.853 247.213C191.762 247.135 191.702 247.027 191.683 246.909C191.671 246.842 191.673 246.775 191.689 246.709C191.704 246.644 191.732 246.582 191.772 246.528C191.812 246.474 191.862 246.429 191.92 246.395C191.978 246.361 192.042 246.339 192.109 246.33C193.439 246.127 194.778 245.914 196.108 245.691C196.173 245.679 196.241 245.681 196.305 245.695C196.37 245.71 196.431 245.738 196.485 245.776C196.539 245.815 196.585 245.864 196.619 245.921C196.654 245.978 196.677 246.041 196.687 246.107C196.7 246.171 196.7 246.238 196.686 246.303C196.672 246.368 196.646 246.429 196.608 246.483C196.57 246.537 196.521 246.583 196.465 246.618C196.409 246.653 196.346 246.675 196.281 246.685C194.941 246.919 193.601 247.132 192.221 247.335H192.18ZM139.613 247.254H139.532C138.192 247.04 136.852 246.807 135.523 246.563C135.456 246.551 135.392 246.526 135.335 246.49C135.278 246.453 135.229 246.406 135.191 246.35C135.152 246.295 135.125 246.232 135.11 246.166C135.096 246.1 135.095 246.031 135.107 245.965C135.119 245.898 135.144 245.834 135.18 245.777C135.217 245.72 135.264 245.671 135.32 245.632C135.375 245.594 135.438 245.567 135.504 245.552C135.57 245.538 135.639 245.536 135.705 245.548C137.035 245.802 138.365 246.025 139.694 246.239C139.761 246.244 139.826 246.262 139.885 246.293C139.945 246.323 139.998 246.365 140.041 246.416C140.085 246.467 140.118 246.526 140.138 246.589C140.159 246.653 140.167 246.72 140.161 246.787C140.156 246.853 140.138 246.918 140.107 246.978C140.077 247.037 140.035 247.09 139.984 247.134C139.933 247.177 139.874 247.21 139.81 247.231C139.747 247.251 139.68 247.259 139.613 247.254ZM200.188 245.965C200.054 245.978 199.919 245.937 199.815 245.852C199.71 245.766 199.644 245.642 199.63 245.508C199.617 245.373 199.657 245.239 199.743 245.134C199.829 245.029 199.952 244.963 200.087 244.95C201.417 244.686 202.746 244.412 204.056 244.127C204.19 244.098 204.331 244.123 204.447 244.197C204.563 244.271 204.645 244.389 204.675 244.523C204.704 244.658 204.679 244.799 204.605 244.915C204.531 245.031 204.413 245.113 204.279 245.142L200.29 245.965H200.188ZM131.645 245.762H131.534C130.204 245.477 128.885 245.173 127.565 244.848C127.501 244.833 127.44 244.805 127.387 244.765C127.334 244.726 127.289 244.677 127.255 244.62C127.221 244.564 127.198 244.501 127.189 244.435C127.179 244.37 127.183 244.303 127.2 244.239C127.231 244.109 127.313 243.996 127.427 243.926C127.541 243.855 127.678 243.833 127.809 243.864C129.118 244.188 130.427 244.483 131.747 244.767C131.812 244.781 131.874 244.808 131.929 244.847C131.984 244.885 132.031 244.934 132.067 244.991C132.103 245.048 132.127 245.111 132.138 245.177C132.149 245.243 132.148 245.311 132.133 245.376C132.106 245.491 132.04 245.593 131.945 245.664C131.85 245.735 131.733 245.769 131.615 245.762H131.645ZM208.075 244.229C207.962 244.229 207.852 244.192 207.764 244.121C207.675 244.051 207.613 243.953 207.588 243.843C207.571 243.779 207.567 243.711 207.576 243.645C207.586 243.579 207.608 243.515 207.642 243.458C207.676 243.4 207.721 243.35 207.774 243.31C207.828 243.27 207.888 243.241 207.953 243.224C209.273 242.899 210.582 242.561 211.881 242.209C212.01 242.175 212.148 242.193 212.264 242.259C212.38 242.326 212.465 242.435 212.5 242.564C212.532 242.695 212.513 242.832 212.447 242.949C212.381 243.066 212.273 243.154 212.145 243.194C210.836 243.539 209.516 243.874 208.197 244.209L208.075 244.229ZM123.718 243.843H123.576C122.267 243.478 120.968 243.102 119.668 242.706C119.534 242.666 119.421 242.574 119.354 242.45C119.288 242.326 119.273 242.181 119.313 242.047C119.354 241.912 119.446 241.799 119.569 241.732C119.693 241.666 119.838 241.651 119.973 241.691C121.252 242.087 122.551 242.463 123.85 242.818C123.98 242.856 124.089 242.943 124.156 243.06C124.222 243.178 124.24 243.317 124.205 243.447C124.181 243.555 124.123 243.652 124.038 243.724C123.954 243.795 123.849 243.837 123.739 243.843H123.718ZM215.921 242.108C215.786 242.126 215.65 242.091 215.541 242.009C215.433 241.927 215.361 241.806 215.342 241.671C215.323 241.537 215.359 241.4 215.441 241.291C215.523 241.183 215.644 241.111 215.779 241.093C217.078 240.717 218.367 240.311 219.646 239.905C219.713 239.884 219.783 239.877 219.852 239.883C219.922 239.89 219.989 239.91 220.051 239.942C220.113 239.975 220.167 240.019 220.212 240.073C220.256 240.127 220.29 240.189 220.311 240.255C220.331 240.322 220.339 240.392 220.332 240.461C220.326 240.531 220.306 240.598 220.273 240.66C220.241 240.722 220.196 240.777 220.143 240.821C220.089 240.866 220.027 240.899 219.961 240.92C218.672 241.336 217.372 241.732 216.063 242.118C216.022 242.122 215.981 242.119 215.941 242.108H215.921ZM115.964 241.458C115.91 241.468 115.855 241.468 115.801 241.458C114.512 241.021 113.233 240.555 111.975 240.078C111.864 240.021 111.777 239.925 111.732 239.809C111.687 239.692 111.687 239.564 111.731 239.447C111.775 239.33 111.86 239.234 111.971 239.176C112.081 239.118 112.209 239.103 112.33 239.134C113.589 239.601 114.847 240.057 116.126 240.494C116.253 240.54 116.357 240.633 116.415 240.755C116.474 240.876 116.483 241.015 116.441 241.143C116.404 241.235 116.342 241.314 116.26 241.37C116.179 241.426 116.083 241.457 115.984 241.458H115.964ZM223.655 239.611C223.551 239.612 223.448 239.581 223.362 239.52C223.277 239.46 223.212 239.375 223.178 239.276C223.136 239.148 223.145 239.008 223.204 238.887C223.262 238.766 223.366 238.672 223.493 238.626C224.772 238.18 226.04 237.713 227.299 237.236C227.361 237.211 227.427 237.2 227.493 237.201C227.56 237.203 227.625 237.218 227.686 237.246C227.747 237.273 227.801 237.312 227.846 237.361C227.891 237.41 227.926 237.467 227.949 237.53C227.973 237.593 227.985 237.659 227.983 237.727C227.982 237.794 227.967 237.86 227.939 237.921C227.912 237.983 227.873 238.038 227.824 238.084C227.775 238.13 227.717 238.166 227.654 238.19C226.396 238.667 225.117 239.134 223.828 239.59C223.778 239.605 223.727 239.612 223.675 239.611H223.655ZM108.382 238.596C108.318 238.61 108.252 238.61 108.189 238.596C106.93 238.068 105.672 237.52 104.454 236.972C104.393 236.943 104.338 236.903 104.293 236.854C104.247 236.804 104.212 236.746 104.19 236.683C104.167 236.619 104.157 236.552 104.161 236.485C104.164 236.418 104.181 236.352 104.21 236.292C104.237 236.231 104.276 236.177 104.325 236.131C104.374 236.086 104.431 236.051 104.493 236.028C104.556 236.006 104.622 235.996 104.689 235.999C104.755 236.002 104.82 236.019 104.88 236.048C106.088 236.596 107.326 237.144 108.574 237.662C108.636 237.686 108.693 237.723 108.74 237.77C108.788 237.816 108.826 237.872 108.851 237.934C108.877 237.995 108.89 238.061 108.889 238.128C108.889 238.195 108.875 238.26 108.849 238.322C108.806 238.403 108.742 238.471 108.663 238.518C108.584 238.565 108.494 238.588 108.402 238.586L108.382 238.596ZM231.257 236.728C231.157 236.73 231.058 236.701 230.974 236.645C230.89 236.589 230.826 236.508 230.791 236.413C230.764 236.352 230.75 236.286 230.75 236.22C230.749 236.153 230.762 236.087 230.788 236.025C230.813 235.964 230.851 235.908 230.899 235.861C230.946 235.815 231.003 235.778 231.065 235.754C232.313 235.236 233.551 234.739 234.78 234.16C234.841 234.133 234.907 234.119 234.974 234.117C235.041 234.116 235.107 234.128 235.169 234.153C235.232 234.177 235.288 234.214 235.337 234.26C235.385 234.307 235.423 234.363 235.449 234.424C235.502 234.547 235.504 234.685 235.457 234.81C235.41 234.935 235.316 235.037 235.196 235.094C233.957 235.642 232.709 236.17 231.45 236.698C231.394 236.712 231.336 236.719 231.278 236.718L231.257 236.728ZM101.033 235.216C100.956 235.213 100.88 235.196 100.81 235.165C99.5917 234.556 98.3839 233.917 97.2065 233.267C97.1477 233.235 97.0958 233.192 97.0538 233.14C97.0117 233.088 96.9804 233.028 96.9615 232.964C96.9427 232.9 96.9367 232.833 96.9439 232.766C96.951 232.7 96.9713 232.635 97.0035 232.577C97.0697 232.46 97.1788 232.374 97.3075 232.336C97.4363 232.298 97.5747 232.311 97.6937 232.374C98.8609 233.023 100.059 233.653 101.266 234.251C101.385 234.316 101.474 234.424 101.515 234.552C101.557 234.68 101.548 234.82 101.49 234.942C101.446 235.024 101.38 235.094 101.299 235.142C101.219 235.19 101.127 235.216 101.033 235.216V235.216ZM238.697 233.429C238.602 233.432 238.508 233.406 238.426 233.356C238.345 233.305 238.281 233.232 238.241 233.145C238.211 233.085 238.194 233.02 238.19 232.953C238.186 232.887 238.195 232.82 238.216 232.757C238.238 232.693 238.272 232.635 238.316 232.585C238.36 232.535 238.414 232.494 238.474 232.465C239.692 231.876 240.9 231.277 242.098 230.658C242.218 230.596 242.357 230.585 242.485 230.626C242.614 230.666 242.721 230.757 242.783 230.877C242.845 230.996 242.857 231.136 242.816 231.264C242.775 231.393 242.684 231.5 242.565 231.562C241.357 232.181 240.149 232.79 238.911 233.379C238.844 233.411 238.771 233.425 238.697 233.419V233.429ZM93.9382 231.298C93.8444 231.296 93.753 231.268 93.6743 231.217C92.507 230.516 91.3499 229.785 90.2233 229.044C90.112 228.97 90.0347 228.855 90.008 228.724C89.9814 228.592 90.0077 228.456 90.0812 228.344C90.1171 228.288 90.1639 228.24 90.2189 228.202C90.2739 228.164 90.3359 228.138 90.4012 228.125C90.4666 228.111 90.5339 228.111 90.5992 228.125C90.6645 228.138 90.7265 228.164 90.7815 228.202C91.898 228.933 93.045 229.654 94.2021 230.354C94.3156 230.423 94.3972 230.535 94.4295 230.664C94.4618 230.793 94.4421 230.929 94.3746 231.044C94.3296 231.12 94.2658 231.183 94.1894 231.228C94.113 231.272 94.0265 231.296 93.9382 231.298ZM245.904 229.684C245.814 229.683 245.726 229.659 245.648 229.615C245.57 229.571 245.504 229.507 245.457 229.43C245.395 229.311 245.381 229.173 245.419 229.044C245.457 228.915 245.544 228.806 245.66 228.74C246.838 228.08 248.005 227.4 249.152 226.71C249.209 226.675 249.273 226.652 249.339 226.642C249.405 226.632 249.473 226.635 249.538 226.651C249.603 226.667 249.664 226.696 249.718 226.736C249.772 226.775 249.818 226.825 249.852 226.883C249.887 226.94 249.91 227.003 249.92 227.07C249.93 227.136 249.927 227.203 249.911 227.268C249.895 227.334 249.866 227.395 249.827 227.449C249.787 227.503 249.737 227.548 249.68 227.583C248.523 228.26 247.345 228.936 246.148 229.613C246.074 229.657 245.99 229.681 245.904 229.684V229.684ZM87.1681 226.822C87.0631 226.821 86.9606 226.789 86.8738 226.73C85.764 225.925 84.678 225.103 83.6156 224.264C83.511 224.18 83.4438 224.058 83.4286 223.925C83.4134 223.792 83.4514 223.659 83.5344 223.553C83.6214 223.45 83.7446 223.384 83.8786 223.369C84.0126 223.354 84.1473 223.391 84.2551 223.472C85.2701 224.304 86.3764 225.116 87.4625 225.908C87.5173 225.947 87.5641 225.996 87.5999 226.052C87.6358 226.109 87.6601 226.172 87.6714 226.238C87.6827 226.304 87.6809 226.372 87.6659 226.437C87.651 226.502 87.6232 226.564 87.5843 226.619C87.5354 226.682 87.4724 226.734 87.4001 226.769C87.3279 226.805 87.2485 226.822 87.1681 226.822ZM80.8142 221.747C80.6918 221.746 80.5734 221.703 80.4793 221.625C79.5658 220.823 78.6523 220.001 77.7794 219.179L77.4647 218.874C77.4174 218.828 77.3799 218.773 77.3543 218.712C77.3286 218.651 77.3154 218.585 77.3154 218.519C77.3154 218.453 77.3286 218.387 77.3543 218.326C77.3799 218.265 77.4174 218.21 77.4647 218.164C77.5119 218.116 77.568 218.078 77.6299 218.053C77.6917 218.027 77.758 218.014 77.825 218.014C77.892 218.014 77.9584 218.027 78.0202 218.053C78.082 218.078 78.1382 218.116 78.1854 218.164L78.4899 218.458C79.3628 219.28 80.256 220.092 81.1695 220.874C81.2486 220.941 81.3051 221.032 81.3311 221.133C81.3571 221.234 81.3514 221.34 81.3148 221.438C81.2783 221.535 81.2125 221.619 81.1266 221.678C81.0407 221.737 80.9387 221.768 80.8345 221.767L80.8142 221.747ZM74.9272 216.164C74.79 216.164 74.6586 216.109 74.5618 216.012C73.6077 214.997 72.6739 213.982 71.7807 213.028C71.7334 212.981 71.6959 212.926 71.6703 212.865C71.6446 212.804 71.6314 212.739 71.6314 212.673C71.6314 212.606 71.6446 212.541 71.6703 212.48C71.6959 212.419 71.7334 212.364 71.7807 212.317C71.8279 212.27 71.884 212.232 71.9459 212.206C72.0077 212.18 72.074 212.167 72.141 212.167C72.208 212.167 72.2744 212.18 72.3362 212.206C72.398 212.232 72.4542 212.27 72.5014 212.317C73.3946 213.332 74.3182 214.347 75.2622 215.271C75.3097 215.318 75.3475 215.374 75.3732 215.436C75.399 215.498 75.4123 215.564 75.4123 215.631C75.4123 215.698 75.399 215.765 75.3732 215.826C75.3475 215.888 75.3097 215.944 75.2622 215.992C75.1811 216.102 75.0616 216.178 74.9272 216.205V216.164ZM69.5071 210.074C69.431 210.073 69.3561 210.055 69.2877 210.022C69.2192 209.989 69.159 209.941 69.1113 209.881C68.2384 208.866 67.3959 207.75 66.5839 206.684C66.5057 206.575 66.4726 206.441 66.4915 206.308C66.5105 206.176 66.5799 206.056 66.6854 205.974C66.7931 205.893 66.9284 205.858 67.0617 205.877C67.1949 205.896 67.3152 205.967 67.3959 206.075C68.1978 207.09 69.0402 208.196 69.8928 209.242C69.9363 209.292 69.9693 209.351 69.9899 209.414C70.0104 209.477 70.0181 209.544 70.0124 209.61C70.0067 209.676 69.9878 209.741 69.9568 209.799C69.9258 209.858 69.8834 209.91 69.8319 209.952C69.7554 210.063 69.6389 210.139 69.5071 210.166V210.074ZM64.625 203.588C64.5425 203.588 64.4613 203.568 64.3887 203.529C64.316 203.49 64.2542 203.434 64.2088 203.365C63.4374 202.238 62.6863 201.081 61.986 199.934C61.929 199.821 61.9167 199.69 61.9517 199.567C61.9867 199.445 62.0663 199.34 62.1748 199.274C62.2833 199.208 62.4128 199.184 62.5376 199.209C62.6624 199.233 62.7734 199.304 62.8487 199.407C63.5389 200.533 64.2799 201.68 65.0411 202.797C65.0793 202.851 65.1062 202.912 65.1203 202.977C65.1343 203.042 65.1352 203.109 65.1229 203.175C65.1106 203.24 65.0854 203.302 65.0487 203.357C65.0119 203.413 64.9645 203.46 64.9092 203.497C64.8399 203.59 64.7388 203.655 64.625 203.68V203.588ZM60.3823 196.676C60.2912 196.675 60.2019 196.651 60.1235 196.604C60.0451 196.558 59.9803 196.492 59.9357 196.412C59.2759 195.215 58.6466 193.986 58.0579 192.779C58.0288 192.718 58.012 192.652 58.0085 192.585C58.005 192.518 58.0149 192.451 58.0376 192.388C58.0602 192.324 58.0952 192.266 58.1405 192.217C58.1858 192.167 58.2406 192.127 58.3015 192.099C58.3607 192.069 58.4252 192.052 58.4911 192.048C58.557 192.044 58.623 192.053 58.6854 192.075C58.7478 192.097 58.8052 192.13 58.8543 192.175C58.9034 192.219 58.9432 192.272 58.9714 192.332C59.55 193.53 60.1793 194.737 60.8187 195.925C60.8524 195.982 60.8742 196.045 60.8828 196.111C60.8913 196.176 60.8864 196.243 60.8684 196.307C60.8503 196.37 60.8195 196.429 60.7778 196.481C60.7361 196.532 60.6844 196.574 60.6259 196.605C60.5652 196.685 60.4794 196.742 60.3823 196.767V196.676ZM56.8399 189.449C56.738 189.451 56.638 189.422 56.5529 189.366C56.4678 189.309 56.4016 189.229 56.3629 189.135C55.8452 187.886 55.3479 186.597 54.9013 185.328C54.8599 185.203 54.869 185.066 54.9268 184.948C54.9845 184.829 55.0863 184.737 55.2106 184.692C55.3348 184.647 55.4717 184.653 55.5921 184.707C55.7125 184.761 55.8069 184.86 55.8554 184.983C56.302 186.242 56.7892 187.511 57.3068 188.749C57.3546 188.873 57.3529 189.011 57.3018 189.134C57.2508 189.257 57.1545 189.355 57.0328 189.409C56.9721 189.436 56.9063 189.45 56.8399 189.449ZM54.14 181.796C54.0298 181.798 53.9221 181.763 53.8339 181.697C53.7458 181.631 53.682 181.537 53.6528 181.431C53.2773 180.121 52.9322 178.792 52.6378 177.472C52.6228 177.407 52.621 177.339 52.6323 177.273C52.6436 177.207 52.6679 177.144 52.7037 177.087C52.7396 177.031 52.7863 176.982 52.8412 176.943C52.8961 176.905 52.9581 176.878 53.0235 176.863C53.154 176.836 53.2899 176.861 53.402 176.933C53.514 177.006 53.5932 177.119 53.6224 177.249C53.9167 178.548 54.2517 179.858 54.6374 181.147C54.656 181.211 54.6619 181.278 54.6547 181.344C54.6474 181.41 54.6272 181.474 54.5951 181.533C54.5631 181.591 54.5199 181.643 54.4679 181.684C54.4159 181.726 54.3562 181.757 54.2923 181.776C54.2499 181.791 54.2052 181.798 54.1603 181.796H54.14ZM52.3638 173.879C52.2421 173.881 52.124 173.839 52.0308 173.76C51.9377 173.682 51.8757 173.573 51.8563 173.453C51.6431 172.103 51.4706 170.743 51.3386 169.393C51.3265 169.258 51.3683 169.124 51.455 169.021C51.5416 168.917 51.6658 168.852 51.8004 168.84C51.935 168.828 52.0689 168.87 52.1727 168.956C52.2764 169.043 52.3415 169.167 52.3536 169.302C52.4856 170.621 52.6581 171.961 52.8713 173.291C52.8829 173.357 52.8813 173.424 52.8667 173.49C52.852 173.555 52.8246 173.617 52.7859 173.672C52.7472 173.726 52.698 173.773 52.6413 173.809C52.5845 173.844 52.5212 173.868 52.4551 173.879H52.3638ZM51.5822 165.81C51.4501 165.808 51.324 165.755 51.2296 165.662C51.1353 165.57 51.0799 165.445 51.0747 165.313C51.0747 164.643 51.0747 163.973 51.0747 163.283C51.0747 162.592 51.0747 161.882 51.0747 161.192C51.076 161.125 51.0908 161.059 51.1182 160.997C51.1457 160.936 51.1853 160.881 51.2346 160.836C51.2839 160.79 51.342 160.755 51.4052 160.732C51.4684 160.71 51.5355 160.7 51.6025 160.705C51.7353 160.71 51.8608 160.767 51.9519 160.864C52.043 160.961 52.0925 161.089 52.0897 161.222C52.0897 161.902 52.0897 162.592 52.0897 163.252C52.0897 163.912 52.0897 164.562 52.0897 165.221C52.0924 165.289 52.0816 165.356 52.058 165.419C52.0343 165.483 51.9983 165.541 51.952 165.59C51.9057 165.639 51.85 165.678 51.7882 165.706C51.7265 165.733 51.6599 165.748 51.5924 165.749L51.5822 165.81ZM51.8563 157.69C51.7899 157.685 51.7253 157.667 51.6662 157.636C51.607 157.606 51.5546 157.564 51.512 157.512C51.4694 157.461 51.4375 157.402 51.4182 157.339C51.3989 157.275 51.3925 157.208 51.3995 157.142C51.5416 155.782 51.7243 154.412 51.9578 153.082C51.9676 153.016 51.9905 152.953 52.0251 152.896C52.0597 152.84 52.1053 152.791 52.1592 152.752C52.2131 152.713 52.2743 152.685 52.3391 152.671C52.4038 152.656 52.4709 152.654 52.5363 152.666C52.6024 152.677 52.6657 152.701 52.7225 152.736C52.7792 152.772 52.8284 152.819 52.8671 152.873C52.9058 152.928 52.9332 152.99 52.9479 153.055C52.9625 153.121 52.9641 153.188 52.9525 153.254C52.7292 154.564 52.5465 155.904 52.4145 157.243C52.397 157.373 52.3324 157.491 52.2331 157.575C52.1338 157.659 52.0068 157.704 51.8766 157.7L51.8563 157.69ZM53.2265 149.692H53.1047C53.04 149.675 52.9792 149.646 52.9258 149.606C52.8724 149.566 52.8274 149.516 52.7935 149.458C52.7595 149.401 52.7373 149.337 52.728 149.271C52.7187 149.205 52.7225 149.137 52.7393 149.073C53.054 147.743 53.4295 146.424 53.8457 145.134C53.8875 145.007 53.9783 144.901 54.0982 144.84C54.2181 144.779 54.3572 144.768 54.4851 144.81C54.548 144.829 54.6064 144.861 54.6569 144.904C54.7073 144.946 54.7489 144.998 54.7791 145.056C54.8093 145.115 54.8276 145.179 54.8329 145.245C54.8382 145.31 54.8304 145.376 54.8099 145.439C54.4039 146.708 54.0385 148.007 53.7239 149.316C53.6973 149.424 53.6363 149.52 53.5502 149.589C53.4641 149.659 53.3575 149.699 53.2468 149.702L53.2265 149.692ZM55.7133 141.968C55.6499 141.983 55.5838 141.983 55.5204 141.968C55.4584 141.943 55.4018 141.906 55.354 141.86C55.3061 141.813 55.2679 141.758 55.2415 141.697C55.2151 141.635 55.201 141.57 55.2001 141.503C55.1992 141.436 55.2115 141.37 55.2362 141.308C55.7437 140.049 56.3121 138.791 56.911 137.573C56.9348 137.505 56.9728 137.443 57.0224 137.391C57.0719 137.339 57.1319 137.299 57.1984 137.271C57.2649 137.244 57.3363 137.232 57.408 137.234C57.4798 137.237 57.5501 137.255 57.6144 137.287C57.6788 137.318 57.7356 137.364 57.7813 137.419C57.8269 137.474 57.8602 137.539 57.8791 137.608C57.898 137.677 57.902 137.75 57.8908 137.821C57.8797 137.892 57.8536 137.959 57.8143 138.019C57.2358 139.217 56.6775 140.445 56.1802 141.694C56.1382 141.777 56.0745 141.847 55.9959 141.897C55.9173 141.947 55.8267 141.975 55.7336 141.978L55.7133 141.968ZM59.3064 134.731C59.2168 134.731 59.1288 134.707 59.0526 134.66C58.9945 134.627 58.9436 134.583 58.9028 134.531C58.8621 134.478 58.8323 134.418 58.8152 134.353C58.7982 134.289 58.7943 134.222 58.8036 134.156C58.813 134.09 58.8356 134.027 58.8699 133.969C59.5601 132.802 60.2808 131.635 61.0319 130.498C61.1112 130.4 61.2244 130.334 61.3494 130.315C61.4743 130.296 61.602 130.324 61.7074 130.393C61.8128 130.463 61.8884 130.57 61.9192 130.693C61.9501 130.815 61.9341 130.945 61.8743 131.056C61.1435 132.173 60.4229 133.33 59.7428 134.477C59.6985 134.554 59.6349 134.617 59.5584 134.662C59.4818 134.706 59.3949 134.73 59.3064 134.731ZM63.7825 127.951C63.6723 127.953 63.5647 127.917 63.478 127.849C63.3716 127.77 63.3004 127.652 63.2795 127.522C63.2587 127.391 63.2898 127.257 63.3664 127.149C64.1784 126.052 65.0208 124.966 65.8836 123.921C65.9249 123.869 65.9764 123.825 66.0348 123.794C66.0932 123.762 66.1575 123.742 66.2238 123.735C66.29 123.728 66.357 123.735 66.4206 123.755C66.4842 123.775 66.5432 123.807 66.5941 123.85C66.6971 123.935 66.7624 124.058 66.7757 124.191C66.789 124.324 66.7492 124.456 66.6651 124.56C65.8125 125.575 64.9802 126.661 64.1885 127.748C64.1377 127.804 64.075 127.849 64.0048 127.879C63.9346 127.909 63.8587 127.923 63.7825 127.92V127.951ZM68.9286 121.678C68.8668 121.679 68.8053 121.668 68.7479 121.645C68.6904 121.623 68.6379 121.589 68.5936 121.546C68.546 121.499 68.5083 121.443 68.4825 121.381C68.4568 121.319 68.4435 121.253 68.4435 121.186C68.4435 121.119 68.4568 121.052 68.4825 120.99C68.5083 120.929 68.546 120.872 68.5936 120.825C69.5071 119.81 70.4714 118.795 71.4356 117.892C71.4819 117.845 71.5372 117.807 71.5982 117.781C71.6592 117.756 71.7247 117.743 71.7909 117.743C71.857 117.743 71.9225 117.756 71.9835 117.781C72.0445 117.807 72.0998 117.845 72.1461 117.892C72.1937 117.939 72.2314 117.995 72.2572 118.057C72.283 118.119 72.2962 118.185 72.2962 118.252C72.2962 118.319 72.283 118.386 72.2572 118.447C72.2314 118.509 72.1937 118.565 72.1461 118.613C71.192 119.536 70.2481 120.511 69.3346 121.505C69.2818 121.558 69.218 121.598 69.1477 121.622C69.0774 121.647 69.0026 121.656 68.9286 121.647V121.678ZM74.7344 116.004C74.6629 116.004 74.5923 115.989 74.5274 115.959C74.4625 115.93 74.4049 115.886 74.3588 115.831C74.3115 115.785 74.274 115.73 74.2484 115.669C74.2227 115.608 74.2095 115.542 74.2095 115.476C74.2095 115.41 74.2227 115.344 74.2484 115.283C74.274 115.222 74.3115 115.167 74.3588 115.121C75.3738 114.218 76.4497 113.345 77.5155 112.512C77.624 112.448 77.7523 112.426 77.8762 112.449C78.0002 112.473 78.1112 112.541 78.1885 112.641C78.2658 112.74 78.304 112.865 78.296 112.991C78.2879 113.117 78.2341 113.235 78.1448 113.324C77.1298 114.136 76.0437 114.999 75.0287 115.882C74.9424 115.942 74.8396 115.974 74.7344 115.974V116.004ZM159.081 114.4C158.989 114.4 158.898 114.374 158.819 114.325C158.741 114.277 158.677 114.208 158.634 114.126C157.97 112.989 157.18 111.93 156.279 110.97C156.189 110.869 156.143 110.736 156.151 110.601C156.158 110.466 156.219 110.339 156.32 110.249C156.421 110.159 156.554 110.112 156.689 110.12C156.824 110.128 156.951 110.189 157.041 110.29C158.001 111.31 158.836 112.441 159.527 113.659C159.559 113.718 159.579 113.782 159.585 113.848C159.591 113.914 159.584 113.981 159.564 114.044C159.545 114.108 159.512 114.166 159.469 114.217C159.426 114.268 159.374 114.309 159.314 114.339C159.24 114.369 159.16 114.38 159.081 114.37V114.4ZM81.1999 111C81.1171 111.002 81.0352 110.983 80.9623 110.943C80.8893 110.904 80.8278 110.847 80.7838 110.777C80.7456 110.722 80.7186 110.661 80.7046 110.596C80.6905 110.531 80.6896 110.464 80.7019 110.399C80.7142 110.333 80.7395 110.271 80.7762 110.216C80.8129 110.161 80.8604 110.113 80.9157 110.076C82.0322 109.305 83.1893 108.564 84.3464 107.864C84.4032 107.827 84.4669 107.803 84.5334 107.792C84.6 107.781 84.6681 107.783 84.7336 107.8C84.7991 107.816 84.8607 107.845 84.9145 107.886C84.9684 107.926 85.0133 107.978 85.0468 108.036C85.0817 108.093 85.105 108.157 85.1153 108.223C85.1256 108.29 85.1226 108.357 85.1066 108.422C85.0905 108.487 85.0617 108.549 85.0218 108.603C84.9819 108.657 84.9318 108.702 84.8742 108.737C83.7273 109.417 82.5905 110.158 81.4841 110.909C81.4016 110.969 81.302 111.001 81.1999 111V111ZM153.732 108.341C153.612 108.34 153.497 108.297 153.407 108.219C152.379 107.368 151.301 106.578 150.179 105.854C150.123 105.817 150.075 105.77 150.037 105.715C150 105.659 149.973 105.597 149.96 105.532C149.946 105.466 149.945 105.399 149.958 105.333C149.97 105.267 149.995 105.205 150.032 105.149C150.069 105.093 150.116 105.044 150.171 105.007C150.227 104.969 150.289 104.943 150.354 104.929C150.42 104.915 150.487 104.915 150.553 104.927C150.619 104.939 150.682 104.965 150.738 105.001C151.89 105.752 152.999 106.568 154.057 107.448C154.135 107.515 154.191 107.604 154.218 107.704C154.244 107.804 154.239 107.91 154.204 108.007C154.168 108.104 154.104 108.188 154.02 108.247C153.936 108.307 153.835 108.34 153.732 108.341V108.341ZM88.1019 106.818C88.0081 106.818 87.916 106.793 87.8356 106.744C87.7551 106.696 87.6893 106.627 87.6452 106.544C87.5842 106.426 87.5724 106.288 87.6123 106.16C87.6522 106.033 87.7405 105.927 87.8583 105.864C89.056 105.235 90.2943 104.636 91.5428 104.078C91.6032 104.049 91.6688 104.033 91.7356 104.03C91.8024 104.028 91.8691 104.038 91.9317 104.062C91.9942 104.086 92.0513 104.122 92.0996 104.168C92.1479 104.214 92.1863 104.27 92.2127 104.331C92.2649 104.454 92.2677 104.593 92.2204 104.717C92.1731 104.842 92.0794 104.944 91.9589 105.001C90.7308 105.549 89.5128 106.138 88.3354 106.757C88.2637 106.796 88.1835 106.817 88.1019 106.818ZM146.972 103.895C146.894 103.894 146.817 103.873 146.749 103.834C145.581 103.256 144.343 102.707 143.084 102.22C142.96 102.172 142.859 102.077 142.804 101.956C142.749 101.834 142.744 101.696 142.79 101.571C142.814 101.508 142.85 101.45 142.896 101.401C142.942 101.352 142.997 101.313 143.058 101.286C143.12 101.258 143.186 101.243 143.253 101.242C143.32 101.24 143.387 101.252 143.45 101.276C144.739 101.774 146.008 102.291 147.205 102.931C147.325 102.992 147.415 103.097 147.457 103.225C147.499 103.352 147.489 103.491 147.429 103.611C147.383 103.702 147.311 103.777 147.223 103.828C147.134 103.879 147.033 103.902 146.931 103.895H146.972ZM95.5419 103.489C95.4391 103.488 95.3388 103.457 95.2539 103.399C95.1689 103.341 95.1031 103.26 95.0648 103.164C95.0405 103.102 95.0289 103.036 95.0306 102.97C95.0323 102.903 95.0473 102.838 95.0748 102.777C95.1022 102.717 95.1415 102.662 95.1904 102.617C95.2392 102.572 95.2966 102.537 95.3592 102.515C96.6279 102.027 97.9271 101.581 99.2263 101.175C99.2895 101.153 99.3566 101.145 99.4232 101.15C99.4899 101.155 99.5548 101.174 99.6138 101.205C99.6729 101.237 99.7248 101.28 99.7664 101.332C99.808 101.385 99.8383 101.445 99.8556 101.51C99.8759 101.573 99.8833 101.64 99.8773 101.706C99.8714 101.772 99.8522 101.836 99.821 101.895C99.7898 101.954 99.7471 102.006 99.6955 102.047C99.6439 102.089 99.5845 102.121 99.5207 102.139C98.2519 102.545 96.9629 102.982 95.7144 103.459C95.6466 103.485 95.5737 103.495 95.5013 103.489H95.5419ZM103.276 101.063C103.142 101.079 103.006 101.041 102.899 100.958C102.793 100.874 102.724 100.751 102.708 100.617C102.692 100.482 102.73 100.346 102.813 100.24C102.897 100.133 103.02 100.064 103.154 100.048C104.464 99.7132 105.804 99.4189 107.143 99.1651C107.209 99.1518 107.276 99.1514 107.341 99.1641C107.407 99.1768 107.469 99.2022 107.525 99.239C107.58 99.2757 107.628 99.3231 107.665 99.3783C107.703 99.4336 107.729 99.4956 107.742 99.561C107.766 99.694 107.737 99.8312 107.661 99.9431C107.585 100.055 107.469 100.133 107.336 100.16C106.017 100.414 104.697 100.708 103.398 101.033L103.276 101.063ZM139.41 100.972H139.278C138.02 100.617 136.71 100.292 135.37 100.018C135.305 100.004 135.243 99.9783 135.188 99.941C135.133 99.9037 135.085 99.8559 135.048 99.8003C135.012 99.7447 134.986 99.6824 134.974 99.6169C134.961 99.5515 134.961 99.4842 134.975 99.4189C135.004 99.2883 135.083 99.1741 135.194 99.1003C135.306 99.0265 135.442 98.9988 135.573 99.023C136.934 99.3072 138.273 99.632 139.552 100.038C139.682 100.076 139.792 100.163 139.858 100.28C139.924 100.398 139.942 100.537 139.908 100.667C139.863 100.769 139.786 100.854 139.689 100.909C139.592 100.964 139.48 100.986 139.37 100.972H139.41ZM111.244 99.5305C111.177 99.5352 111.11 99.5267 111.047 99.5055C110.984 99.4843 110.925 99.4508 110.875 99.407C110.773 99.3185 110.71 99.1931 110.701 99.0585C110.691 98.9239 110.736 98.7911 110.824 98.6893C110.913 98.5874 111.038 98.5249 111.173 98.5155C112.513 98.3328 113.873 98.1806 115.233 98.0689C115.3 98.0636 115.367 98.0714 115.43 98.092C115.494 98.1126 115.553 98.1455 115.604 98.1888C115.655 98.2322 115.696 98.2852 115.727 98.3447C115.757 98.4042 115.776 98.4692 115.781 98.5358C115.786 98.6024 115.778 98.6695 115.758 98.7331C115.737 98.7967 115.704 98.8557 115.661 98.9066C115.618 98.9574 115.565 98.9993 115.505 99.0297C115.446 99.0602 115.381 99.0786 115.314 99.0839C113.984 99.2057 112.634 99.3478 111.315 99.5305H111.244ZM131.473 99.3478H131.402C130.113 99.1854 128.763 99.0433 127.403 98.952C127.336 98.9481 127.271 98.9311 127.211 98.9019C127.151 98.8727 127.097 98.832 127.052 98.782C127.008 98.7321 126.974 98.6738 126.952 98.6107C126.931 98.5475 126.922 98.4807 126.926 98.414C126.936 98.2784 126.999 98.1524 127.102 98.0631C127.204 97.9739 127.338 97.9286 127.474 97.937C128.854 98.0385 130.224 98.1704 131.534 98.343C131.6 98.347 131.666 98.364 131.726 98.3932C131.786 98.4224 131.839 98.4632 131.884 98.5131C131.928 98.5631 131.962 98.6213 131.984 98.6844C132.006 98.7475 132.015 98.8143 132.011 98.8809C132.007 98.9476 131.99 99.0128 131.961 99.0728C131.931 99.1328 131.891 99.1865 131.841 99.2308C131.791 99.2751 131.732 99.3092 131.669 99.331C131.606 99.3528 131.54 99.362 131.473 99.358V99.3478ZM119.293 98.8302C119.162 98.8303 119.036 98.7796 118.941 98.6888C118.846 98.5979 118.791 98.474 118.785 98.343C118.782 98.209 118.832 98.0792 118.923 97.9808C119.013 97.8824 119.139 97.823 119.273 97.8152C120.623 97.8152 122.003 97.7543 123.333 97.8152C123.466 97.8204 123.593 97.8773 123.686 97.9738C123.778 98.0703 123.83 98.199 123.83 98.3328C123.829 98.3995 123.814 98.4652 123.787 98.5263C123.761 98.5873 123.722 98.6425 123.674 98.6887C123.626 98.7349 123.569 98.7712 123.507 98.7954C123.445 98.8197 123.379 98.8315 123.312 98.8302C121.983 98.8302 120.612 98.8302 119.252 98.8302H119.293Z" fill="#D1D3D4"/>
</svg>
