<svg width="177" height="182" viewBox="0 0 177 182" fill="none" xmlns="http://www.w3.org/2000/svg">
<path d="M175.748 93.6124C175.773 109.403 171.513 124.905 163.424 138.467C155.334 152.028 143.718 163.141 129.811 170.622C115.904 178.103 100.229 181.671 84.4547 180.947C68.6803 180.223 53.3979 175.233 40.2353 166.51C37.3544 164.612 34.5919 162.541 31.963 160.308C20.8912 150.94 12.3259 138.962 7.03998 125.456C1.75408 111.951 -0.0861198 97.3411 1.68542 82.9463C3.45695 68.5514 8.78449 54.8241 17.1873 43.0028C25.5902 31.1815 36.8039 21.6383 49.8169 15.2341V15.2341C60.3021 10.0854 71.7118 7.08722 83.3736 6.4161C95.0355 5.74497 106.714 7.41451 117.72 11.3263C117.72 11.3263 117.72 11.3263 117.72 11.3263C134.7 17.3805 149.391 28.5383 159.779 43.27C170.168 58.0017 175.746 75.5861 175.748 93.6124Z" fill="white"/>
<path d="M88.3864 181.988C71.0603 182.017 54.1114 176.929 39.6664 167.362C36.751 165.438 33.9546 163.34 31.2926 161.079C20.0965 151.607 11.4338 139.497 6.08557 125.842C0.737392 112.187 -1.12809 97.4149 0.657331 82.8586C2.44275 68.3023 7.82293 54.4193 16.3128 42.4612C24.8026 30.5032 36.1351 20.8461 49.2886 14.3607H49.3698C59.9777 9.15309 71.5205 6.12091 83.3183 5.44281C95.1161 4.76472 106.93 6.45442 118.065 10.4124C118.065 10.4124 118.065 10.4124 118.146 10.4124C137.752 17.4204 154.253 31.1259 164.74 49.1121C175.227 67.0982 179.027 88.2097 175.469 108.724C171.91 129.238 161.223 147.836 145.291 161.24C129.36 174.644 109.207 181.992 88.3864 181.988V181.988ZM50.334 16.0964L50.2528 16.1471C32.3836 24.9485 18.1075 39.6579 9.84415 57.7822C1.58085 75.9065 -0.161203 96.3305 4.91328 115.592C9.98776 134.854 21.5666 151.769 37.6871 163.47C53.8076 175.17 73.4781 180.936 93.3643 179.791C113.25 178.646 132.129 170.66 146.8 157.186C161.471 143.712 171.031 125.58 173.861 105.863C176.691 86.146 172.616 66.057 162.326 49.0011C152.037 31.9452 136.167 18.9718 117.405 12.28H117.324C106.464 8.43081 94.9444 6.78837 83.4412 7.44894C71.9379 8.1095 60.6823 11.0598 50.334 16.1268V16.0964Z" fill="#093F68"/>
<path d="M94.6094 104.168H82.0234V120.641H94.6094V104.168Z" fill="#FFBC0E"/>
<path d="M94.6088 121.667H82.0228C81.7536 121.667 81.4954 121.56 81.3051 121.37C81.1147 121.179 81.0078 120.921 81.0078 120.652V104.189C81.0078 103.92 81.1147 103.661 81.3051 103.471C81.4954 103.281 81.7536 103.174 82.0228 103.174H94.6088C94.878 103.174 95.1362 103.281 95.3265 103.471C95.5169 103.661 95.6238 103.92 95.6238 104.189V120.672C95.6185 120.938 95.5092 121.191 95.3194 121.377C95.1297 121.563 94.8745 121.667 94.6088 121.667V121.667ZM83.0378 119.637H93.5938V105.204H83.0378V119.637Z" fill="#093F68"/>
<path d="M136.538 153.264V166.509C122.256 175.955 105.51 180.992 88.3867 180.992C71.2632 180.992 54.5178 175.955 40.2351 166.509V153.264C40.2123 149.329 40.7037 145.408 41.6967 141.601C45.8481 125.859 58.1905 114.43 72.776 114.43H103.916C121.953 114.43 136.538 131.817 136.538 153.264Z" fill="#68E1FD"/>
<path d="M88.3858 181.989C71.0597 182.019 54.1108 176.931 39.6658 167.363C39.5247 167.27 39.4091 167.144 39.3293 166.995C39.2496 166.846 39.2082 166.68 39.209 166.511V153.265C39.2025 149.24 39.7177 145.231 40.7417 141.339C45.1468 124.642 57.9967 113.416 72.8055 113.416H103.946C122.469 113.416 137.542 131.29 137.542 153.265V166.511C137.543 166.68 137.502 166.846 137.422 166.995C137.342 167.144 137.227 167.27 137.085 167.363C122.64 176.931 105.692 182.019 88.3655 181.989H88.3858ZM41.2492 165.963C55.2691 175.108 71.6467 179.978 88.3858 179.978C105.125 179.978 121.502 175.108 135.522 165.963V153.265C135.522 132.407 121.363 115.446 103.956 115.446H72.8157C58.9812 115.446 46.8824 126.063 42.7209 141.836C41.7371 145.555 41.2423 149.387 41.2492 153.234V165.963Z" fill="#093F68"/>
<path d="M59.1752 176.974C58.906 176.974 58.6478 176.867 58.4574 176.677C58.2671 176.487 58.1602 176.228 58.1602 175.959V144.372C58.1602 144.103 58.2671 143.845 58.4574 143.655C58.6478 143.464 58.906 143.357 59.1752 143.357C59.4444 143.357 59.7025 143.464 59.8929 143.655C60.0832 143.845 60.1902 144.103 60.1902 144.372V175.959C60.1902 176.228 60.0832 176.487 59.8929 176.677C59.7025 176.867 59.4444 176.974 59.1752 176.974Z" fill="#093F68"/>
<path d="M117.599 176.974C117.33 176.974 117.072 176.867 116.881 176.677C116.691 176.487 116.584 176.228 116.584 175.959V144.372C116.584 144.103 116.691 143.845 116.881 143.655C117.072 143.464 117.33 143.357 117.599 143.357C117.868 143.357 118.126 143.464 118.317 143.655C118.507 143.845 118.614 144.103 118.614 144.372V175.959C118.614 176.228 118.507 176.487 118.317 176.677C118.126 176.867 117.868 176.974 117.599 176.974Z" fill="#093F68"/>
<path d="M88.3867 147.904L78.125 114.43H98.6483L88.3867 147.904Z" fill="#093F68"/>
<path d="M88.3862 148.92C88.161 148.929 87.939 148.864 87.7552 148.733C87.5715 148.603 87.4363 148.415 87.3712 148.199L77.1197 114.704C77.0741 114.553 77.0642 114.394 77.0906 114.239C77.117 114.084 77.1791 113.938 77.2719 113.811C77.3654 113.683 77.4875 113.578 77.6285 113.506C77.7695 113.434 77.9255 113.396 78.0839 113.395H98.6072C98.7657 113.396 98.9216 113.434 99.0626 113.506C99.2036 113.578 99.3258 113.683 99.4192 113.811C99.5121 113.938 99.5741 114.084 99.6006 114.239C99.627 114.394 99.617 114.553 99.5715 114.704L89.32 148.199C89.2588 148.401 89.1359 148.58 88.9685 148.709C88.8011 148.838 88.5975 148.912 88.3862 148.92ZM79.5049 115.425L88.3862 144.443L97.2674 115.445L79.5049 115.425Z" fill="#093F68"/>
<path d="M59.1743 175.838V175.96C52.4978 173.597 46.1368 170.424 40.2344 166.51C37.3535 164.613 34.591 162.542 31.9621 160.308L22.6444 135.725C22.6444 135.725 15.0827 127.605 15.5394 121.586C15.9962 115.567 22.3298 110.421 25.1819 111.639C26.877 112.38 32.1854 123.91 32.1854 123.91C34.8143 114.694 37.1386 114.988 38.8641 116.602C40.5896 118.216 36.2251 131.533 36.2251 131.533L41.7873 141.602L57.8548 170.702C58.7326 172.27 59.1873 174.04 59.1743 175.838V175.838Z" fill="#FFBC0E"/>
<path d="M59.1759 176.975C59.0588 176.978 58.9421 176.961 58.8308 176.924C52.0775 174.529 45.6421 171.319 39.6676 167.363C36.7522 165.439 33.9559 163.341 31.2939 161.08C31.1678 160.966 31.0705 160.823 31.0097 160.664L21.7529 136.304C20.677 135.106 14.0592 127.544 14.4652 121.546C14.7025 119.517 15.392 117.568 16.4829 115.841C17.5738 114.114 19.0382 112.654 20.7683 111.568C22.575 110.482 24.2599 110.188 25.5287 110.736C27.0207 111.386 29.8526 116.826 31.9333 121.15C33.2731 117.273 34.6535 115.304 36.308 114.847C36.8814 114.715 37.4796 114.74 38.0402 114.919C38.6008 115.097 39.1032 115.423 39.4951 115.862C41.3221 117.587 38.947 126.164 37.2621 131.432L58.6786 170.205C59.6587 171.921 60.1764 173.862 60.1808 175.838V175.96C60.1808 176.229 60.0739 176.487 59.8835 176.678C59.6932 176.868 59.435 176.975 59.1658 176.975H59.1759ZM32.7859 159.72C35.3221 161.864 37.9826 163.857 40.7537 165.688C46.1537 169.268 51.9423 172.224 58.0087 174.498C57.8553 173.334 57.4871 172.209 56.9226 171.179L35.2828 132C35.2169 131.879 35.1766 131.745 35.1644 131.607C35.1522 131.469 35.1683 131.33 35.2118 131.198C37.0997 125.362 38.7034 118.369 38.0741 117.273C37.3534 116.613 36.9779 116.714 36.8561 116.745C36.3283 116.897 34.8971 117.912 33.1107 124.175C33.0534 124.374 32.9364 124.551 32.7756 124.681C32.6148 124.812 32.4178 124.89 32.2111 124.906C32.0045 124.921 31.798 124.873 31.6195 124.768C31.441 124.663 31.299 124.505 31.2127 124.317C28.8173 119.12 25.6505 113.152 24.6964 112.533C24.1947 112.45 23.6814 112.473 23.1888 112.599C22.6962 112.724 22.2349 112.951 21.8341 113.263C20.3725 114.168 19.1341 115.39 18.2114 116.84C17.2886 118.29 16.7054 119.93 16.5053 121.637C16.1298 127.149 23.316 134.944 23.387 135.015C23.4767 135.113 23.5488 135.227 23.6002 135.35L32.7859 159.72Z" fill="#093F68"/>
<path d="M86.1534 108.137C115.735 108.137 139.715 84.1564 139.715 54.5752C139.715 24.994 115.735 1.01367 86.1534 1.01367C56.5721 1.01367 32.5918 24.994 32.5918 54.5752C32.5918 84.1564 56.5721 108.137 86.1534 108.137Z" fill="#FFBC0E"/>
<path d="M86.1528 109.153C75.3585 109.153 64.8067 105.952 55.8316 99.9553C46.8566 93.9584 39.8614 85.4347 35.7306 75.4621C31.5998 65.4896 30.519 54.516 32.6249 43.9292C34.7307 33.3424 39.9286 23.6178 47.5613 15.9851C55.194 8.35246 64.9186 3.15454 75.5054 1.0487C86.0922 -1.05715 97.0657 0.0236502 107.038 4.15442C117.011 8.28519 125.535 15.2804 131.531 24.2555C137.528 33.2305 140.729 43.7824 140.729 54.5766C140.713 69.0462 134.958 82.9186 124.726 93.1502C114.495 103.382 100.622 109.137 86.1528 109.153ZM86.1528 2.03002C75.76 2.03002 65.6007 5.11183 56.9595 10.8857C48.3182 16.6596 41.5832 24.8663 37.6061 34.4679C33.629 44.0695 32.5883 54.6349 34.6159 64.8279C36.6434 75.0209 41.648 84.3838 48.9967 91.7326C56.3455 99.0814 65.7084 104.086 75.9014 106.113C86.0945 108.141 96.6598 107.1 106.261 103.123C115.863 99.1461 124.07 92.4111 129.844 83.7699C135.617 75.1286 138.699 64.9693 138.699 54.5766C138.686 40.6445 133.145 27.2869 123.294 17.4354C113.442 7.58391 100.085 2.04346 86.1528 2.03002V2.03002Z" fill="#093F68"/>
<path d="M70.8672 48.3952C74.7407 48.3952 77.8808 44.5235 77.8808 39.7474C77.8808 34.9714 74.7407 31.0996 70.8672 31.0996C66.9936 31.0996 63.8535 34.9714 63.8535 39.7474C63.8535 44.5235 66.9936 48.3952 70.8672 48.3952Z" fill="#093F68"/>
<path d="M101.439 48.3952C105.313 48.3952 108.453 44.5235 108.453 39.7474C108.453 34.9714 105.313 31.0996 101.439 31.0996C97.5659 31.0996 94.4258 34.9714 94.4258 39.7474C94.4258 44.5235 97.5659 48.3952 101.439 48.3952Z" fill="#093F68"/>
<path d="M50.293 59.8535C51.9816 68.1178 56.473 75.5453 63.0073 80.8794C69.5416 86.2136 77.7178 89.1271 86.1529 89.1271C94.588 89.1271 102.764 86.2136 109.299 80.8794C115.833 75.5453 120.324 68.1178 122.013 59.8535" fill="#FFBC0E"/>
<path d="M86.1543 90.6484C77.3785 90.6333 68.8754 87.5983 62.0735 82.0533C55.2715 76.5082 50.5854 68.7911 48.8022 60.1984C48.7215 59.8027 48.8012 59.3911 49.0239 59.0542C49.2466 58.7173 49.5941 58.4826 49.9898 58.4019C50.3855 58.3211 50.7971 58.4008 51.134 58.6236C51.4709 58.8463 51.7056 59.1937 51.7863 59.5894C53.4051 67.5096 57.7097 74.6276 63.9721 79.7395C70.2345 84.8514 78.0704 87.6434 86.1543 87.6434C94.2381 87.6434 102.074 84.8514 108.336 79.7395C114.599 74.6276 118.903 67.5096 120.522 59.5894C120.603 59.1937 120.838 58.8463 121.174 58.6236C121.511 58.4008 121.923 58.3211 122.319 58.4019C122.714 58.4826 123.062 58.7173 123.285 59.0542C123.507 59.3911 123.587 59.8027 123.506 60.1984C121.72 68.7893 117.032 76.5043 110.231 82.0488C103.43 87.5932 94.929 90.6296 86.1543 90.6484Z" fill="#093F68"/>
<path d="M26.9992 132.548C26.7701 132.556 26.545 132.486 26.3607 132.35C26.1764 132.213 26.0437 132.019 25.9842 131.797C25.1418 128.752 25.3955 126.428 26.7353 124.845C28.6536 122.561 32.0539 122.886 32.196 122.906C32.4652 122.933 32.7127 123.066 32.884 123.275C33.0553 123.484 33.1364 123.753 33.1095 124.022C33.0826 124.292 32.9498 124.539 32.7404 124.71C32.5311 124.882 32.2622 124.963 31.993 124.936V124.936C31.993 124.936 29.5063 124.713 28.2781 126.174C27.4052 127.189 27.2631 128.925 27.9431 131.249C27.9786 131.378 27.9883 131.512 27.9717 131.645C27.9552 131.777 27.9127 131.905 27.8467 132.021C27.7807 132.137 27.6925 132.238 27.5872 132.32C27.4818 132.402 27.3613 132.462 27.2327 132.498C27.1566 132.522 27.0784 132.539 26.9992 132.548V132.548Z" fill="#093F68"/>
<path d="M88.3861 181.989C88.1169 181.989 87.8587 181.882 87.6684 181.692C87.478 181.502 87.3711 181.244 87.3711 180.974V147.906C87.3711 147.636 87.478 147.378 87.6684 147.188C87.8587 146.998 88.1169 146.891 88.3861 146.891C88.6553 146.891 88.9135 146.998 89.1038 147.188C89.2942 147.378 89.4011 147.636 89.4011 147.906V180.974C89.4011 181.244 89.2942 181.502 89.1038 181.692C88.9135 181.882 88.6553 181.989 88.3861 181.989V181.989Z" fill="#093F68"/>
<path d="M105.205 169.951C105.007 169.952 104.813 169.896 104.646 169.789L98.0896 165.485C97.9499 165.393 97.8352 165.268 97.7555 165.121C97.6758 164.974 97.6337 164.81 97.6328 164.642V151.529C97.6328 151.259 97.7397 151.001 97.9301 150.811C98.1204 150.621 98.3786 150.514 98.6478 150.514H111.731C112 150.514 112.259 150.621 112.449 150.811C112.639 151.001 112.746 151.259 112.746 151.529V164.642C112.745 164.81 112.703 164.974 112.623 165.121C112.544 165.268 112.429 165.393 112.289 165.485L105.733 169.789C105.575 169.89 105.392 169.947 105.205 169.951V169.951ZM99.6628 164.074L105.205 167.708L110.716 164.074V152.544H99.6628V164.074Z" fill="#093F68"/>
</svg>
