<svg width="406" height="306" viewBox="0 0 406 306" fill="none" xmlns="http://www.w3.org/2000/svg">
<path d="M317.066 224.953C317.066 224.953 303.536 198.919 299.405 193.681C295.274 188.444 274.476 131.127 274.192 130.579C273.908 130.031 310.62 133.888 315.036 137.481C319.451 141.074 323.592 173.625 327.216 177.218C330.839 180.811 344.288 197.356 344.288 197.356L317.066 224.953Z" fill="white"/>
<path d="M317.066 225.461H316.985C316.906 225.445 316.831 225.413 316.766 225.366C316.701 225.318 316.648 225.257 316.609 225.187C316.477 224.933 303.069 199.142 298.999 193.996C295.446 189.489 280.181 148.189 275.156 134.618C274.365 132.477 273.796 130.934 273.735 130.792C273.691 130.684 273.681 130.565 273.709 130.452C273.736 130.339 273.799 130.238 273.888 130.163C274.619 129.574 290.392 131.614 293.264 132.02C302.003 133.238 312.935 135.065 315.361 137.095C317.786 139.125 320.009 148.778 322.313 159.009C324.11 167.017 325.967 175.249 327.541 176.863C331.103 180.435 344.126 196.371 344.684 197.051C344.767 197.143 344.814 197.262 344.814 197.386C344.814 197.51 344.767 197.629 344.684 197.721L317.452 225.319C317.402 225.37 317.341 225.409 317.275 225.433C317.208 225.458 317.137 225.467 317.066 225.461V225.461ZM274.913 131.066L276.111 134.304C289.539 170.62 297.507 190.504 299.801 193.407C303.617 198.239 315.026 220.071 317.188 224.141L343.578 197.366C341.598 194.95 330.027 180.852 326.789 177.614C325.013 175.838 323.288 168.154 321.288 159.263C319.258 150.128 316.903 139.714 314.691 137.948C310.854 134.73 279.765 131.157 274.913 131.025V131.066Z" fill="#03DAC6"/>
<path d="M319.39 248.339L307.129 213.18L341.487 190.799L366.446 229.095L319.39 248.339Z" fill="#03DAC6"/>
<path d="M319.39 248.836C319.32 248.851 319.247 248.851 319.177 248.836C319.115 248.807 319.06 248.766 319.015 248.716C318.97 248.665 318.935 248.606 318.913 248.542L306.652 213.392C306.613 213.284 306.612 213.166 306.648 213.057C306.685 212.949 306.758 212.856 306.855 212.793L341.212 190.413C341.325 190.34 341.463 190.316 341.594 190.344C341.725 190.373 341.84 190.452 341.913 190.565L366.872 228.861C366.912 228.923 366.938 228.994 366.948 229.067C366.959 229.141 366.954 229.216 366.932 229.287C366.908 229.357 366.87 229.422 366.819 229.476C366.768 229.53 366.707 229.573 366.638 229.602L319.583 248.887C319.516 248.88 319.451 248.863 319.39 248.836V248.836ZM307.738 213.392L319.725 247.669L365.725 228.851L341.365 191.499L307.738 213.392Z" fill="#03DAC6"/>
<path d="M84.0723 224.953C84.0723 224.953 97.6022 198.919 101.733 193.681C105.864 188.444 126.662 131.127 126.946 130.579C127.23 130.031 90.5175 133.888 86.1023 137.481C81.687 141.074 77.5458 173.625 73.9223 177.218C70.2987 180.811 56.8398 197.356 56.8398 197.356L84.0723 224.953Z" fill="white"/>
<path d="M84.0724 225.461C84.0058 225.462 83.9398 225.448 83.8786 225.422C83.8175 225.396 83.7624 225.357 83.7171 225.309L56.4847 197.711C56.4012 197.619 56.355 197.5 56.355 197.376C56.355 197.252 56.4012 197.132 56.4847 197.041C57.0125 196.361 70.0349 180.405 73.5976 176.852C75.1708 175.279 77.0283 167.007 78.8248 158.999C81.1289 148.767 83.2908 139.105 85.7776 137.085C88.2643 135.065 99.135 133.238 107.874 132.01C110.747 131.604 126.51 129.564 127.25 130.152C127.344 130.226 127.41 130.33 127.436 130.447C127.461 130.563 127.446 130.685 127.393 130.792L125.982 134.608C120.907 148.179 105.682 189.479 102.139 193.986C98.0794 199.132 84.6611 224.923 84.5291 225.177C84.4904 225.247 84.4367 225.308 84.3719 225.355C84.307 225.403 84.2324 225.435 84.1536 225.451L84.0724 225.461ZM57.5301 197.325L83.9201 224.101C86.0415 220.041 97.4907 198.198 101.307 193.366C103.601 190.464 111.569 170.58 124.997 134.263L126.195 131.025C121.343 131.157 90.2537 134.74 86.3866 137.876C84.1739 139.673 81.8495 150.056 79.7891 159.191C77.7591 168.083 76.064 175.766 74.2878 177.543C71.0499 180.811 59.5094 194.909 57.5301 197.325Z" fill="#03DAC6"/>
<path d="M77.2312 247.953L94.0091 213.179L60.8998 185.957L32.084 222.233L77.2312 247.953Z" fill="#03DAC6"/>
<path d="M77.2313 248.461C77.1448 248.462 77.0598 248.438 76.9877 248.39L31.8304 222.67C31.7665 222.634 31.7114 222.585 31.6692 222.525C31.627 222.465 31.5989 222.397 31.5868 222.325C31.5725 222.254 31.5741 222.18 31.5917 222.11C31.6093 222.04 31.6422 221.974 31.6883 221.919L60.5041 185.642C60.5442 185.59 60.5946 185.545 60.6521 185.512C60.7096 185.479 60.7732 185.458 60.8391 185.45C60.9738 185.438 61.1079 185.478 61.2146 185.561L94.3341 212.794C94.4221 212.865 94.4832 212.964 94.5072 213.075C94.5312 213.186 94.5167 213.301 94.466 213.403L77.6881 248.177C77.623 248.299 77.5144 248.394 77.3836 248.441L77.2313 248.461ZM32.8454 222.071L77.0182 247.233L93.38 213.322L60.971 186.668L32.8454 222.071Z" fill="#03DAC6"/>
<path d="M130.255 97.6316C130.255 97.6316 94.0603 193.478 96.07 194.676C98.0797 195.873 142.993 182.689 152.372 180.293L201.985 196.472L255.608 185.084L304.5 200.065L278.384 101.235L240.829 82.0615L204.015 100.027L169.13 84.4468L130.255 97.6316Z" fill="white"/>
<path d="M304.5 200.573H304.348L255.577 185.612L202.087 196.97C202 196.99 201.91 196.99 201.823 196.97L152.362 180.841C149.845 181.491 144.861 182.871 139.116 184.485C111.498 192.199 97.227 195.965 95.8161 195.132C95.1259 194.726 94.1921 194.118 111.934 145.55C120.633 121.707 129.687 97.7128 129.778 97.4692C129.807 97.3995 129.849 97.3366 129.904 97.2842C129.958 97.2318 130.022 97.1911 130.093 97.1647L168.967 83.9697C169.088 83.9246 169.222 83.9246 169.343 83.9697L204.015 99.4688L240.667 81.5946C240.738 81.5597 240.816 81.5415 240.895 81.5415C240.974 81.5415 241.052 81.5597 241.124 81.5946L278.679 100.758C278.742 100.791 278.799 100.837 278.844 100.893C278.889 100.949 278.923 101.013 278.942 101.083L305.079 199.923C305.099 199.998 305.102 200.077 305.087 200.153C305.072 200.229 305.039 200.301 304.992 200.363C304.945 200.425 304.885 200.475 304.815 200.509C304.746 200.544 304.669 200.562 304.591 200.563L304.5 200.573ZM255.567 184.577H255.719L303.769 199.284L277.927 101.539L240.849 82.6198L204.208 100.484C204.071 100.539 203.918 100.539 203.782 100.484L169.109 84.9949L130.651 98.0376C116.806 134.679 96.6078 189.733 96.4962 194.27C99.3585 194.513 124.916 187.368 138.842 183.49C144.709 181.856 149.774 180.445 152.25 179.806C152.342 179.776 152.442 179.776 152.534 179.806L201.985 195.944L255.476 184.587L255.567 184.577Z" fill="#03DAC6"/>
<path d="M127.687 131.685C127.579 131.684 127.474 131.649 127.386 131.586C127.299 131.522 127.234 131.432 127.2 131.33C127.118 131.08 127.088 130.817 127.11 130.555C127.133 130.293 127.208 130.039 127.332 129.807C128.009 128.819 129.029 128.118 130.194 127.838C138.39 125.456 147.004 124.871 155.447 126.123C156.462 126.285 157.569 126.478 158.624 126.661C162.075 127.28 165.648 127.909 169.119 127.452C172.702 126.872 176.115 125.514 179.117 123.474C187.47 118.257 192.393 110.878 192.312 103.732C192.314 103.599 192.367 103.472 192.459 103.376C192.551 103.28 192.676 103.222 192.809 103.214C192.877 103.211 192.945 103.223 193.008 103.247C193.072 103.271 193.129 103.309 193.178 103.356C193.226 103.404 193.265 103.461 193.29 103.524C193.316 103.586 193.328 103.654 193.327 103.722C193.439 111.223 188.333 118.947 179.685 124.336C176.556 126.455 173.002 127.864 169.272 128.467C165.658 128.934 162.004 128.285 158.482 127.666C157.467 127.473 156.381 127.29 155.336 127.128C147.035 125.896 138.567 126.471 130.509 128.813C129.61 129.015 128.814 129.533 128.266 130.274C128.202 130.386 128.162 130.509 128.15 130.637C128.138 130.765 128.153 130.894 128.194 131.015C128.237 131.142 128.227 131.28 128.168 131.399C128.109 131.519 128.006 131.611 127.88 131.655L127.687 131.685Z" fill="#D1D3D4"/>
<path d="M123.83 176.436C123.749 176.436 123.668 176.417 123.596 176.379C123.524 176.342 123.462 176.287 123.415 176.22C123.368 176.154 123.338 176.077 123.327 175.996C123.316 175.915 123.325 175.833 123.353 175.756C127.758 163.465 132.559 151.955 142.75 146.078C149.723 142.018 158.858 141.074 169.901 143.165C174.083 143.956 178.244 145.093 182.274 146.21C187.005 147.586 191.806 148.711 196.656 149.58C203.467 150.666 208.4 150.117 212.196 147.844C215.992 145.57 218.398 141.652 220.854 137.552C222.345 134.846 224.106 132.299 226.112 129.949C232.618 122.844 242.666 120.693 253.253 118.998C262.266 117.556 270.944 116.633 277.907 121.119C278.02 121.193 278.099 121.309 278.127 121.441C278.154 121.573 278.128 121.711 278.054 121.824C277.98 121.937 277.864 122.016 277.732 122.044C277.6 122.072 277.462 122.046 277.349 121.971C270.69 117.678 262.225 118.592 253.405 120.002C243.011 121.667 233.156 123.738 226.863 130.629C224.907 132.932 223.186 135.424 221.727 138.069C219.311 142.129 216.824 146.26 212.724 148.717C208.623 151.173 203.589 151.762 196.484 150.584C191.6 149.709 186.765 148.577 182 147.194C177.99 146.098 173.88 144.971 169.698 144.149C158.908 142.119 150.007 143.043 143.247 146.93C133.351 152.645 128.641 163.972 124.297 176.071C124.269 176.174 124.208 176.265 124.124 176.331C124.04 176.397 123.937 176.434 123.83 176.436V176.436Z" fill="#D1D3D4"/>
<path d="M201.985 196.98C201.851 196.975 201.725 196.918 201.632 196.821C201.539 196.725 201.488 196.596 201.488 196.462L203.518 100.037C203.528 99.9053 203.586 99.7815 203.682 99.6897C203.777 99.598 203.903 99.5447 204.035 99.54C204.103 99.54 204.169 99.5535 204.231 99.5797C204.292 99.606 204.348 99.6445 204.395 99.6928C204.441 99.7412 204.477 99.7984 204.501 99.8611C204.525 99.9238 204.536 99.9907 204.533 100.058L202.503 196.483C202.501 196.549 202.487 196.615 202.46 196.676C202.434 196.737 202.395 196.792 202.347 196.839C202.299 196.885 202.242 196.921 202.18 196.945C202.118 196.97 202.052 196.981 201.985 196.98V196.98Z" fill="#D1D3D4"/>
<path d="M152.372 180.801H152.25C152.118 180.776 152 180.701 151.923 180.591C151.845 180.481 151.813 180.345 151.834 180.212L168.592 84.3655C168.614 84.2309 168.69 84.1109 168.801 84.0319C168.912 83.9529 169.051 83.9214 169.185 83.9443C169.32 83.9672 169.44 84.0426 169.519 84.1539C169.598 84.2653 169.629 84.4035 169.607 84.5381L152.879 180.405C152.852 180.518 152.787 180.619 152.695 180.691C152.602 180.763 152.489 180.802 152.372 180.801V180.801Z" fill="#D1D3D4"/>
<path d="M255.597 185.592C255.475 185.593 255.357 185.549 255.266 185.468C255.174 185.388 255.115 185.276 255.1 185.155L240.352 82.1226C240.333 81.988 240.369 81.8514 240.451 81.7429C240.532 81.6344 240.654 81.5629 240.789 81.544C240.923 81.5252 241.06 81.5606 241.168 81.6424C241.277 81.7243 241.348 81.8459 241.367 81.9805L256.115 185.013C256.133 185.147 256.097 185.283 256.015 185.391C255.933 185.5 255.813 185.572 255.679 185.592H255.597Z" fill="#D1D3D4"/>
<path d="M291.305 190.393C291.241 190.402 291.176 190.402 291.112 190.393L253.75 174.437L200.797 186.779C200.702 186.81 200.599 186.81 200.503 186.779L154.331 168.865L109.772 180.405C109.683 180.428 109.589 180.427 109.499 180.402C109.41 180.377 109.329 180.329 109.265 180.263C109.204 180.193 109.162 180.109 109.145 180.018C109.127 179.927 109.133 179.833 109.163 179.745L136.72 102.25C136.745 102.181 136.784 102.118 136.834 102.066C136.885 102.013 136.947 101.972 137.015 101.946L167.759 89.9686C167.824 89.9386 167.895 89.923 167.967 89.923C168.039 89.923 168.11 89.9386 168.175 89.9686L203.893 107.427L241.205 89.1566C241.276 89.1217 241.354 89.1035 241.433 89.1035C241.512 89.1035 241.59 89.1217 241.661 89.1566L274.05 105.965C274.117 105.999 274.175 106.048 274.221 106.108C274.266 106.168 274.298 106.237 274.314 106.31L291.883 189.774C291.902 189.864 291.895 189.958 291.865 190.046C291.835 190.133 291.782 190.211 291.711 190.271C291.657 190.321 291.593 190.358 291.522 190.379C291.452 190.401 291.377 190.405 291.305 190.393ZM253.75 173.402C253.813 173.387 253.879 173.387 253.943 173.402L290.594 188.992L273.268 106.716L241.367 90.1716L204.056 108.442C203.985 108.472 203.909 108.487 203.832 108.487C203.755 108.487 203.68 108.472 203.609 108.442L167.922 90.9938L137.593 102.808L110.442 179.167L154.28 167.819C154.383 167.788 154.492 167.788 154.595 167.819L200.777 185.734L253.75 173.412V173.402Z" fill="#D1D3D4"/>
<path d="M312.529 152.655C304.104 146.88 294.685 142.688 285.053 139.277C282.668 138.435 280.13 137.623 277.653 138.151C275.177 138.678 272.893 141.023 273.39 143.5C273.786 145.449 275.623 146.707 277.308 147.763L299.364 161.567C298.16 166.174 298.333 171.032 299.861 175.542C301.389 180.052 304.205 184.015 307.961 186.942" fill="white"/>
<path d="M307.961 187.51C307.851 187.511 307.744 187.475 307.657 187.408C303.842 184.474 300.969 180.488 299.391 175.942C297.813 171.395 297.599 166.487 298.776 161.82L277.034 148.219C275.177 147.052 273.319 145.733 272.893 143.621C272.335 140.8 274.923 138.222 277.542 137.673C280.16 137.125 282.617 137.907 285.225 138.82C296.492 142.819 305.261 147.082 312.813 152.249C312.869 152.287 312.916 152.335 312.953 152.391C312.99 152.447 313.015 152.51 313.028 152.577C313.04 152.643 313.039 152.71 313.025 152.776C313.01 152.842 312.983 152.904 312.945 152.959C312.908 153.015 312.861 153.062 312.805 153.099C312.75 153.136 312.688 153.161 312.623 153.173C312.557 153.185 312.49 153.185 312.425 153.17C312.36 153.156 312.299 153.129 312.245 153.091C304.764 148.016 296.065 143.743 284.89 139.785C282.444 138.912 280.059 138.181 277.785 138.658C275.512 139.135 273.472 141.185 273.918 143.418C274.273 145.144 275.948 146.311 277.603 147.357L299.638 161.12C299.732 161.178 299.803 161.265 299.842 161.368C299.88 161.471 299.884 161.583 299.851 161.688C298.68 166.202 298.852 170.96 300.347 175.378C301.841 179.796 304.594 183.681 308.266 186.556C308.373 186.637 308.445 186.757 308.464 186.89C308.483 187.023 308.448 187.159 308.367 187.266C308.324 187.336 308.264 187.395 308.194 187.437C308.123 187.48 308.043 187.505 307.961 187.51V187.51Z" fill="#03DAC6"/>
<path d="M241.255 137.176C239.936 134.507 238.667 131.949 237.408 129.391C233.348 121.119 229.288 112.836 225.117 104.595C223.524 101.646 222.674 98.3538 222.64 95.0028C222.7 90.4825 224.402 86.1383 227.428 82.7801C230.454 79.4219 234.599 77.279 239.088 76.751C243.578 76.2231 248.107 77.346 251.83 79.9105C255.552 82.475 258.216 86.306 259.322 90.6891C260.461 95.0227 259.959 99.6244 257.911 103.61L247.66 124.357L241.631 136.537C241.499 136.76 241.397 136.902 241.255 137.176ZM241.255 104.584C243.1 104.59 244.905 104.049 246.441 103.028C247.978 102.008 249.177 100.554 249.886 98.8512C250.596 97.1486 250.784 95.2737 250.427 93.4639C250.07 91.6542 249.184 89.9911 247.881 88.6854C246.579 87.3796 244.917 86.49 243.108 86.1291C241.3 85.7682 239.424 85.9524 237.72 86.6583C236.016 87.3642 234.559 88.56 233.535 90.0943C232.512 91.6286 231.966 93.4323 231.968 95.2769C231.979 97.7351 232.957 100.09 234.691 101.832C236.426 103.574 238.777 104.563 241.235 104.584H241.255Z" fill="#03DAC6"/>
<path d="M163.781 157.151L159.934 149.356C155.874 141.094 151.814 132.801 147.642 124.57C146.051 121.621 145.201 118.329 145.166 114.978C145.225 110.458 146.927 106.113 149.953 102.755C152.98 99.397 157.124 97.2541 161.614 96.7261C166.104 96.1982 170.632 97.3211 174.355 99.8856C178.078 102.45 180.741 106.281 181.848 110.664C182.983 114.991 182.481 119.585 180.437 123.565L170.145 144.311L164.116 156.491L163.781 157.151ZM163.781 124.56C165.625 124.566 167.429 124.024 168.966 123.004C170.502 121.984 171.701 120.531 172.411 118.829C173.121 117.127 173.31 115.252 172.953 113.443C172.597 111.633 171.712 109.97 170.41 108.664C169.109 107.358 167.448 106.467 165.64 106.105C163.832 105.743 161.957 105.926 160.252 106.631C158.548 107.335 157.091 108.529 156.066 110.062C155.041 111.595 154.493 113.398 154.493 115.242C154.496 117.705 155.471 120.068 157.206 121.817C158.941 123.565 161.297 124.558 163.76 124.58L163.781 124.56Z" fill="#03DAC6"/>
<path d="M88.6094 152.655C97.0339 146.88 106.453 142.688 116.085 139.277C118.471 138.435 121.008 137.623 123.485 138.151C125.961 138.678 128.245 141.023 127.748 143.5C127.352 145.449 125.515 146.707 123.83 147.763L101.774 161.567C102.986 166.173 102.817 171.035 101.289 175.546C99.7601 180.058 96.9393 184.02 93.1769 186.942" fill="white"/>
<path d="M93.1771 187.51C93.0985 187.509 93.021 187.49 92.9507 187.455C92.8803 187.42 92.8189 187.369 92.7711 187.307C92.6904 187.199 92.6557 187.064 92.6747 186.931C92.6938 186.797 92.765 186.677 92.8726 186.596C96.5446 183.721 99.2969 179.836 100.792 175.419C102.286 171.001 102.459 166.243 101.287 161.729C101.244 161.619 101.242 161.497 101.281 161.385C101.32 161.274 101.398 161.179 101.5 161.12L123.566 147.316C125.241 146.301 126.895 145.103 127.251 143.378C127.697 141.145 125.576 139.084 123.384 138.617C121.191 138.15 118.694 138.871 116.279 139.744C105.114 143.702 96.3947 147.935 88.8735 153.051C88.8192 153.089 88.7577 153.116 88.6928 153.13C88.6279 153.144 88.5608 153.145 88.4955 153.132C88.4302 153.12 88.3681 153.095 88.3127 153.058C88.2573 153.021 88.2099 152.974 88.1732 152.919C88.1347 152.864 88.1076 152.801 88.0935 152.736C88.0793 152.67 88.0783 152.602 88.0906 152.536C88.1028 152.47 88.1281 152.407 88.165 152.35C88.2018 152.294 88.2494 152.246 88.3051 152.208C95.877 147.062 104.647 142.85 115.913 138.79C118.501 137.876 120.988 137.105 123.597 137.643C126.205 138.181 128.804 140.769 128.245 143.591C127.819 145.702 125.962 147.022 124.104 148.189L102.363 161.79C103.539 166.456 103.325 171.365 101.747 175.911C100.169 180.458 97.296 184.444 93.4816 187.378C93.3982 187.455 93.2907 187.502 93.1771 187.51V187.51Z" fill="#03DAC6"/>
<path d="M99.216 108.005C99.1059 108.008 98.9983 107.972 98.9115 107.904L80.9156 94.1302C80.8532 94.0942 80.7991 94.0454 80.7571 93.9869C80.715 93.9284 80.6859 93.8616 80.6716 93.791C80.6574 93.7203 80.6583 93.6475 80.6744 93.5773C80.6905 93.507 80.7214 93.441 80.765 93.3837C80.8085 93.3263 80.8638 93.2788 80.9272 93.2445C80.9905 93.2101 81.0604 93.1897 81.1323 93.1844C81.2042 93.1792 81.2763 93.1893 81.3439 93.2142C81.4116 93.239 81.4732 93.2779 81.5246 93.3284L99.5205 107.051C99.6057 107.115 99.6687 107.204 99.7004 107.306C99.7322 107.408 99.7312 107.517 99.6975 107.618C99.6638 107.719 99.5992 107.807 99.5128 107.869C99.4264 107.931 99.3225 107.965 99.216 107.965V108.005Z" fill="#D1D3D4"/>
<path d="M194.474 74.9466C194.351 74.9479 194.231 74.9042 194.138 74.8239C194.045 74.7436 193.984 74.6321 193.966 74.5102L192.687 64.2384C192.67 64.1038 192.707 63.9678 192.789 63.8602C192.872 63.7527 192.994 63.6824 193.129 63.6649C193.263 63.6474 193.4 63.6841 193.507 63.7669C193.615 63.8497 193.685 63.9718 193.702 64.1064L194.971 74.3782C194.981 74.4444 194.978 74.5119 194.961 74.5767C194.944 74.6415 194.915 74.7022 194.874 74.7553C194.833 74.8084 194.782 74.8527 194.724 74.8855C194.665 74.9184 194.601 74.9392 194.535 74.9466H194.474Z" fill="#D1D3D4"/>
<path d="M311.96 116.927C311.882 116.926 311.804 116.907 311.734 116.872C311.664 116.837 311.602 116.786 311.554 116.724C311.473 116.617 311.436 116.483 311.453 116.35C311.47 116.216 311.54 116.096 311.646 116.013L330.504 101.154C330.611 101.07 330.746 101.032 330.88 101.049C331.014 101.065 331.137 101.134 331.22 101.24C331.304 101.346 331.341 101.481 331.325 101.616C331.309 101.75 331.24 101.872 331.134 101.955L312.275 116.815C312.184 116.883 312.074 116.922 311.96 116.927V116.927Z" fill="#D1D3D4"/>
<path d="M272.263 81.2698C272.175 81.2703 272.088 81.2494 272.01 81.2089C271.894 81.1392 271.81 81.0269 271.776 80.896C271.741 80.7651 271.76 80.626 271.827 80.5086L276.394 72.5104C276.428 72.4524 276.472 72.4016 276.525 72.3607C276.578 72.3199 276.639 72.2899 276.703 72.2725C276.768 72.2551 276.835 72.2505 276.901 72.2591C276.968 72.2677 277.032 72.2893 277.09 72.3226C277.148 72.3559 277.199 72.4003 277.239 72.4533C277.28 72.5063 277.31 72.5668 277.328 72.6314C277.345 72.6959 277.35 72.7633 277.341 72.8296C277.332 72.8959 277.311 72.9599 277.277 73.0179L272.7 81.0161C272.656 81.0928 272.592 81.1566 272.515 81.2011C272.439 81.2456 272.352 81.2693 272.263 81.2698Z" fill="#D1D3D4"/>
<path d="M113.244 235.317C113.134 235.314 113.028 235.279 112.939 235.215C112.831 235.132 112.759 235.01 112.74 234.876C112.721 234.741 112.756 234.604 112.838 234.494L129.413 212.784C129.493 212.676 129.614 212.605 129.747 212.586C129.88 212.567 130.015 212.601 130.123 212.682C130.229 212.764 130.298 212.884 130.317 213.017C130.336 213.149 130.303 213.284 130.225 213.393L113.68 235.114C113.629 235.18 113.563 235.234 113.487 235.269C113.411 235.304 113.327 235.321 113.244 235.317Z" fill="#D1D3D4"/>
<path d="M275.573 230.739C275.498 230.74 275.424 230.725 275.356 230.695C275.288 230.665 275.227 230.621 275.177 230.566L256.907 208.845C256.819 208.742 256.777 208.607 256.788 208.472C256.799 208.337 256.864 208.212 256.968 208.125C257.071 208.037 257.205 207.994 257.341 208.006C257.476 208.017 257.601 208.082 257.688 208.185L275.958 229.906C276.044 230.011 276.086 230.145 276.075 230.279C276.063 230.414 276 230.539 275.897 230.627C275.803 230.697 275.69 230.736 275.573 230.739V230.739Z" fill="#D1D3D4"/>
<path d="M189.805 228.455C189.671 228.435 189.55 228.363 189.469 228.255C189.387 228.147 189.351 228.011 189.369 227.877L191.084 215.301C191.104 215.17 191.175 215.051 191.281 214.972C191.387 214.892 191.521 214.857 191.652 214.875C191.719 214.882 191.783 214.903 191.841 214.936C191.9 214.969 191.951 215.013 191.991 215.066C192.032 215.119 192.062 215.18 192.079 215.244C192.095 215.309 192.099 215.377 192.089 215.443L190.373 228.019C190.356 228.152 190.286 228.273 190.179 228.354C190.073 228.436 189.938 228.473 189.805 228.455V228.455Z" fill="#D1D3D4"/>
<path d="M85.2599 219.31C85.1466 219.312 85.0359 219.277 84.9453 219.209L56.5253 197.762C56.4176 197.681 56.3464 197.561 56.3274 197.427C56.3083 197.294 56.343 197.159 56.4238 197.051C56.5061 196.946 56.6261 196.876 56.7586 196.857C56.891 196.838 57.0257 196.871 57.1343 196.95L85.5543 218.397C85.6395 218.46 85.7024 218.55 85.7342 218.651C85.7659 218.753 85.7649 218.862 85.7312 218.963C85.6975 219.064 85.6329 219.152 85.5465 219.214C85.4601 219.277 85.3563 219.31 85.2498 219.31H85.2599Z" fill="white"/>
<path d="M316.152 220.457C316.043 220.457 315.936 220.421 315.849 220.355C315.761 220.289 315.697 220.197 315.667 220.092C315.636 219.987 315.64 219.875 315.678 219.772C315.716 219.67 315.786 219.582 315.878 219.523L343.121 202.177C343.236 202.108 343.373 202.086 343.504 202.116C343.634 202.147 343.748 202.227 343.821 202.339C343.894 202.452 343.918 202.589 343.89 202.721C343.861 202.852 343.782 202.967 343.669 203.039L316.426 220.376C316.343 220.426 316.249 220.454 316.152 220.457Z" fill="white"/>
</svg>
