<svg width="406" height="306" viewBox="0 0 406 306" fill="none" xmlns="http://www.w3.org/2000/svg">
<path d="M146.546 98.078C146.334 98.0766 146.128 98.0092 145.957 97.8851L133.98 89.1967C133.762 89.0379 133.616 88.7989 133.574 88.5325C133.532 88.266 133.598 87.9938 133.757 87.7757C133.915 87.5577 134.154 87.4116 134.421 87.3698C134.687 87.3279 134.959 87.3936 135.177 87.5524L147.175 96.2408C147.392 96.3976 147.538 96.6339 147.582 96.8981C147.626 97.1624 147.563 97.4333 147.408 97.6517C147.311 97.7885 147.181 97.8992 147.031 97.9736C146.88 98.048 146.713 98.0838 146.546 98.078Z" fill="#DFEAEF"/>
<path d="M131.118 173.209C130.964 173.209 130.811 173.175 130.672 173.108C130.533 173.042 130.411 172.944 130.316 172.823C130.151 172.611 130.077 172.343 130.109 172.077C130.141 171.811 130.278 171.568 130.488 171.402L142.496 161.993C142.709 161.85 142.967 161.794 143.22 161.834C143.473 161.874 143.702 162.009 143.86 162.21C144.017 162.412 144.093 162.666 144.072 162.921C144.051 163.176 143.934 163.414 143.744 163.586L131.747 172.995C131.567 173.135 131.345 173.21 131.118 173.209V173.209Z" fill="#DFEAEF"/>
<path d="M146.556 126.234H127.119C126.849 126.234 126.591 126.127 126.401 125.937C126.21 125.746 126.104 125.488 126.104 125.219C126.104 124.95 126.21 124.692 126.401 124.501C126.591 124.311 126.849 124.204 127.119 124.204H146.556C146.825 124.204 147.083 124.311 147.273 124.501C147.464 124.692 147.571 124.95 147.571 125.219C147.571 125.488 147.464 125.746 147.273 125.937C147.083 126.127 146.825 126.234 146.556 126.234Z" fill="#DFEAEF"/>
<path d="M273.035 98.0787C272.82 98.0794 272.61 98.012 272.436 97.8862C272.262 97.7603 272.133 97.5825 272.066 97.3782C272 97.174 271.999 96.9539 272.066 96.7497C272.132 96.5454 272.262 96.3675 272.436 96.2415L284.443 87.5531C284.551 87.4685 284.674 87.4066 284.806 87.371C284.939 87.3353 285.076 87.3268 285.212 87.3458C285.347 87.3648 285.478 87.411 285.595 87.4816C285.712 87.5522 285.814 87.6458 285.894 87.7567C285.974 87.8676 286.031 87.9935 286.061 88.1269C286.091 88.2603 286.094 88.3985 286.069 88.533C286.045 88.6676 285.993 88.7958 285.918 88.91C285.843 89.0242 285.745 89.1219 285.631 89.1974L273.664 97.8858C273.482 98.0182 273.26 98.0861 273.035 98.0787Z" fill="#DFEAEF"/>
<path d="M288.493 173.209C288.269 173.208 288.051 173.133 287.874 172.996L275.867 163.586C275.762 163.504 275.675 163.401 275.609 163.285C275.544 163.169 275.503 163.041 275.487 162.908C275.472 162.776 275.483 162.642 275.519 162.513C275.555 162.385 275.616 162.265 275.699 162.16C275.782 162.056 275.884 161.968 276.001 161.903C276.117 161.838 276.245 161.797 276.377 161.781C276.51 161.766 276.644 161.776 276.772 161.813C276.901 161.849 277.02 161.91 277.125 161.993L289.122 171.402C289.333 171.568 289.469 171.811 289.502 172.077C289.534 172.343 289.46 172.611 289.295 172.823C289.199 172.944 289.077 173.042 288.939 173.108C288.8 173.175 288.647 173.21 288.493 173.209Z" fill="#DFEAEF"/>
<path d="M292.503 126.234H273.035C272.766 126.234 272.508 126.127 272.317 125.937C272.127 125.746 272.02 125.488 272.02 125.219C272.02 124.95 272.127 124.692 272.317 124.501C272.508 124.311 272.766 124.204 273.035 124.204H292.472C292.741 124.204 293 124.311 293.19 124.501C293.38 124.692 293.487 124.95 293.487 125.219C293.487 125.488 293.38 125.746 293.19 125.937C293 126.127 292.741 126.234 292.472 126.234H292.503Z" fill="#DFEAEF"/>
<path d="M185.745 116.46C185.745 116.46 166.196 122.002 164.897 126.103C164.897 126.103 156.939 136.161 155.356 148.707C154.585 154.797 156.757 168.134 159.741 173.97C165.831 185.866 171.769 196.889 171.769 196.889L168.013 214.519L223.919 228.983L230.009 204.928C230.009 204.928 241.692 197.823 245.864 187.52C250.035 177.218 248.157 117.292 241.692 109.568C235.226 101.844 185.745 116.46 185.745 116.46Z" fill="#FFC9B0"/>
<path d="M223.899 229.998C223.815 230.009 223.729 230.009 223.645 229.998L167.739 215.534C167.484 215.469 167.265 215.308 167.127 215.085C166.989 214.861 166.942 214.593 166.998 214.336L170.672 197.081C169.657 195.153 164.247 185.105 158.817 174.477C155.853 168.682 153.509 155.192 154.331 148.625C155.853 136.557 162.999 126.915 163.983 125.636C165.79 121.291 182.132 116.501 185.44 115.486C190.597 113.963 235.724 100.92 242.423 108.919C248.959 116.724 251.121 177.086 246.757 187.896C242.869 197.528 232.902 204.258 230.841 205.567L224.883 229.237C224.816 229.497 224.648 229.719 224.416 229.856C224.259 229.946 224.081 229.995 223.899 229.998V229.998ZM169.18 213.758L223.158 227.724L228.974 204.653C229.039 204.395 229.203 204.173 229.431 204.034C229.542 203.963 240.88 197.01 244.869 187.114C248.979 176.964 246.949 117.465 240.859 110.198C239.499 108.574 233.866 106.523 211.424 111.091C198.443 113.74 186.049 117.374 185.958 117.414C178.061 119.657 166.592 123.92 165.81 126.387C165.767 126.502 165.709 126.611 165.638 126.712C165.557 126.803 157.832 136.709 156.3 148.818C155.528 154.908 157.812 168.103 160.583 173.493C166.582 185.236 172.54 196.27 172.601 196.381C172.714 196.596 172.746 196.845 172.692 197.081L169.18 213.758Z" fill="#093F68"/>
<path d="M244.036 57.7422H180.792C176.402 57.7422 172.844 61.3004 172.844 65.6896V188.931C172.844 193.32 176.402 196.878 180.792 196.878H244.036C248.426 196.878 251.984 193.32 251.984 188.931V65.6896C251.984 61.3004 248.426 57.7422 244.036 57.7422Z" fill="white"/>
<path d="M244.036 197.904H180.792C178.414 197.898 176.136 196.951 174.456 195.269C172.777 193.587 171.832 191.308 171.829 188.931V65.7099C171.832 63.3328 172.777 61.0537 174.456 59.3719C176.136 57.69 178.414 56.7427 180.792 56.7373H244.036C246.413 56.7427 248.691 57.69 250.371 59.3719C252.051 61.0537 252.996 63.3328 252.999 65.7099V188.931C252.996 191.308 252.051 193.587 250.371 195.269C248.691 196.951 246.413 197.898 244.036 197.904V197.904ZM180.792 58.7572C178.951 58.7625 177.188 59.4974 175.888 60.8007C174.589 62.104 173.859 63.8694 173.859 65.7099V188.931C173.862 190.77 174.593 192.532 175.892 193.834C177.191 195.135 178.953 195.868 180.792 195.874H244.036C245.876 195.871 247.639 195.138 248.939 193.836C250.239 192.535 250.969 190.77 250.969 188.931V65.7099C250.969 63.8704 250.239 62.106 248.939 60.8043C247.639 59.5026 245.876 58.77 244.036 58.7673L180.792 58.7572Z" fill="#093F68"/>
<path d="M243.163 73.0889H181.664C179.366 73.0889 177.503 74.952 177.503 77.2504V174.954C177.503 177.253 179.366 179.116 181.664 179.116H243.163C245.462 179.116 247.325 177.253 247.325 174.954V77.2504C247.325 74.952 245.462 73.0889 243.163 73.0889Z" fill="#03DAC6"/>
<path d="M243.174 180.131H181.685C180.313 180.128 178.998 179.582 178.027 178.612C177.057 177.642 176.511 176.327 176.508 174.955V77.2406C176.511 75.8694 177.058 74.5554 178.028 73.5868C178.999 72.6182 180.314 72.0742 181.685 72.0742H243.194C244.564 72.0742 245.878 72.6185 246.847 73.5874C247.816 74.5563 248.36 75.8704 248.36 77.2406V174.955C248.36 175.635 248.226 176.309 247.965 176.938C247.704 177.567 247.322 178.138 246.84 178.619C246.359 179.099 245.787 179.48 245.158 179.74C244.528 180 243.854 180.132 243.174 180.131V180.131ZM181.685 74.1042C181.272 74.1029 180.863 74.183 180.481 74.34C180.1 74.4971 179.753 74.7279 179.461 75.0192C179.168 75.3106 178.936 75.6568 178.778 76.038C178.62 76.4192 178.538 76.8278 178.538 77.2406V174.955C178.538 175.789 178.87 176.589 179.46 177.18C180.05 177.77 180.85 178.101 181.685 178.101H243.194C244.027 178.098 244.824 177.766 245.412 177.176C246 176.586 246.33 175.787 246.33 174.955V77.2406C246.33 76.4088 246 75.611 245.412 75.0228C244.823 74.4347 244.026 74.1042 243.194 74.1042H181.685Z" fill="#093F68"/>
<path d="M199.772 67.4865C200.478 67.4865 201.051 66.9139 201.051 66.2076C201.051 65.5013 200.478 64.9287 199.772 64.9287C199.066 64.9287 198.493 65.5013 198.493 66.2076C198.493 66.9139 199.066 67.4865 199.772 67.4865Z" fill="#093F68"/>
<path d="M226.345 67.2224H205.883C205.613 67.2224 205.355 67.1154 205.165 66.9251C204.975 66.7347 204.868 66.4766 204.868 66.2074C204.868 65.9382 204.975 65.68 205.165 65.4897C205.355 65.2993 205.613 65.1924 205.883 65.1924H226.345C226.614 65.1924 226.872 65.2993 227.063 65.4897C227.253 65.68 227.36 65.9382 227.36 66.2074C227.36 66.4766 227.253 66.7347 227.063 66.9251C226.872 67.1154 226.614 67.2224 226.345 67.2224Z" fill="#093F68"/>
<path d="M212.419 192.027C214.908 192.027 216.926 190.009 216.926 187.52C216.926 185.031 214.908 183.014 212.419 183.014C209.93 183.014 207.913 185.031 207.913 187.52C207.913 190.009 209.93 192.027 212.419 192.027Z" fill="white"/>
<path d="M212.419 193.042C211.324 193.044 210.253 192.721 209.342 192.113C208.431 191.506 207.72 190.643 207.3 189.631C206.881 188.62 206.77 187.507 206.983 186.433C207.196 185.359 207.723 184.372 208.498 183.598C209.272 182.824 210.258 182.297 211.332 182.084C212.406 181.871 213.52 181.981 214.531 182.401C215.542 182.821 216.406 183.532 217.013 184.443C217.62 185.354 217.943 186.425 217.941 187.52C217.938 188.984 217.356 190.386 216.321 191.421C215.286 192.456 213.883 193.039 212.419 193.042V193.042ZM212.419 184.018C211.726 184.016 211.048 184.22 210.471 184.603C209.894 184.987 209.444 185.533 209.177 186.173C208.91 186.812 208.84 187.517 208.973 188.197C209.107 188.877 209.44 189.502 209.929 189.992C210.419 190.483 211.043 190.818 211.722 190.954C212.402 191.09 213.106 191.021 213.747 190.756C214.387 190.491 214.935 190.043 215.32 189.466C215.705 188.89 215.911 188.213 215.911 187.52C215.908 186.594 215.54 185.706 214.886 185.05C214.232 184.394 213.345 184.024 212.419 184.018Z" fill="#DFEAEF"/>
<path d="M255.323 111.659H242.91C240.056 111.659 237.743 113.972 237.743 116.826V120.053C237.743 122.907 240.056 125.22 242.91 125.22H255.323C258.176 125.22 260.489 122.907 260.489 120.053V116.826C260.489 113.972 258.176 111.659 255.323 111.659Z" fill="#FFC9B0"/>
<path d="M255.313 126.234H242.91C241.27 126.234 239.698 125.583 238.539 124.423C237.38 123.264 236.729 121.692 236.729 120.053V116.825C236.729 115.186 237.38 113.613 238.539 112.454C239.698 111.295 241.27 110.644 242.91 110.644H255.313C256.953 110.644 258.527 111.294 259.688 112.453C260.848 113.612 261.502 115.185 261.505 116.825V120.053C261.502 121.693 260.848 123.265 259.688 124.424C258.527 125.583 256.953 126.234 255.313 126.234V126.234ZM242.91 112.674C241.809 112.674 240.753 113.111 239.974 113.889C239.196 114.668 238.759 115.724 238.759 116.825V120.053C238.761 121.153 239.199 122.207 239.977 122.985C240.755 123.763 241.81 124.201 242.91 124.204H255.313C256.415 124.204 257.472 123.767 258.252 122.989C259.032 122.21 259.472 121.155 259.475 120.053V116.825C259.472 115.723 259.032 114.667 258.252 113.889C257.472 113.111 256.415 112.674 255.313 112.674H242.91Z" fill="#093F68"/>
<path d="M258.317 127.32H243.285C240.224 127.32 237.743 129.802 237.743 132.862V135.339C237.743 138.4 240.224 140.881 243.285 140.881H258.317C261.378 140.881 263.859 138.4 263.859 135.339V132.862C263.859 129.802 261.378 127.32 258.317 127.32Z" fill="#FFC9B0"/>
<path d="M258.328 141.896H243.285C241.547 141.893 239.881 141.202 238.652 139.973C237.423 138.744 236.731 137.077 236.729 135.339V132.852C236.731 131.115 237.423 129.45 238.653 128.223C239.882 126.995 241.548 126.306 243.285 126.306H258.328C260.064 126.306 261.729 126.995 262.957 128.223C264.185 129.451 264.874 131.116 264.874 132.852V135.339C264.874 137.076 264.185 138.743 262.958 139.972C261.73 141.201 260.065 141.893 258.328 141.896V141.896ZM243.285 128.336C242.087 128.336 240.937 128.811 240.088 129.658C239.239 130.505 238.761 131.654 238.759 132.852V135.339C238.759 136.54 239.235 137.691 240.084 138.54C240.933 139.389 242.085 139.866 243.285 139.866H258.328C258.925 139.87 259.517 139.756 260.069 139.53C260.622 139.305 261.125 138.972 261.548 138.551C261.972 138.13 262.308 137.63 262.538 137.079C262.767 136.527 262.885 135.936 262.885 135.339V132.852C262.882 131.655 262.406 130.508 261.559 129.662C260.713 128.815 259.565 128.338 258.368 128.336H243.285Z" fill="#093F68"/>
<path d="M258.317 142.972H243.285C240.224 142.972 237.743 145.453 237.743 148.514V150.99C237.743 154.051 240.224 156.532 243.285 156.532H258.317C261.378 156.532 263.859 154.051 263.859 150.99V148.514C263.859 145.453 261.378 142.972 258.317 142.972Z" fill="#FFC9B0"/>
<path d="M258.328 157.557H243.285C241.547 157.554 239.881 156.863 238.652 155.634C237.423 154.405 236.731 152.738 236.729 151V148.513C236.731 146.775 237.423 145.109 238.652 143.88C239.881 142.651 241.547 141.959 243.285 141.957H258.328C260.065 141.959 261.73 142.651 262.958 143.881C264.185 145.11 264.874 146.776 264.874 148.513V150.97C264.878 151.833 264.712 152.688 264.385 153.486C264.058 154.284 263.577 155.01 262.968 155.622C262.36 156.234 261.637 156.72 260.841 157.052C260.045 157.384 259.19 157.556 258.328 157.557V157.557ZM243.285 143.987C242.085 143.987 240.933 144.463 240.084 145.312C239.235 146.161 238.759 147.313 238.759 148.513V150.97C238.759 152.17 239.235 153.322 240.084 154.171C240.933 155.02 242.085 155.497 243.285 155.497H258.328C258.925 155.501 259.517 155.387 260.069 155.161C260.622 154.935 261.125 154.602 261.548 154.182C261.972 153.761 262.308 153.26 262.538 152.709C262.767 152.158 262.885 151.567 262.885 150.97V148.483C262.885 147.284 262.41 146.134 261.563 145.286C260.716 144.437 259.567 143.959 258.368 143.956L243.285 143.987Z" fill="#093F68"/>
<path d="M255.323 158.633H242.91C240.056 158.633 237.743 160.946 237.743 163.8V167.027C237.743 169.881 240.056 172.194 242.91 172.194H255.323C258.176 172.194 260.489 169.881 260.489 167.027V163.8C260.489 160.946 258.176 158.633 255.323 158.633Z" fill="#FFC9B0"/>
<path d="M255.313 173.209H242.91C241.27 173.209 239.698 172.557 238.539 171.398C237.38 170.239 236.729 168.667 236.729 167.027V163.8C236.729 162.16 237.38 160.588 238.539 159.429C239.698 158.269 241.27 157.618 242.91 157.618H255.313C256.953 157.618 258.527 158.269 259.688 159.428C260.848 160.587 261.502 162.159 261.505 163.8V167.027C261.502 168.668 260.848 170.24 259.688 171.399C258.527 172.558 256.953 173.209 255.313 173.209V173.209ZM242.91 159.648C241.81 159.651 240.755 160.089 239.977 160.867C239.199 161.645 238.761 162.699 238.759 163.8V167.027C238.759 168.128 239.196 169.184 239.974 169.963C240.753 170.741 241.809 171.179 242.91 171.179H255.313C256.415 171.179 257.472 170.742 258.252 169.963C259.032 169.185 259.472 168.129 259.475 167.027V163.8C259.472 162.698 259.032 161.642 258.252 160.863C257.472 160.085 256.415 159.648 255.313 159.648H242.91Z" fill="#093F68"/>
<path d="M168.013 151.356C168.013 151.356 187.369 126.915 191.175 116.704C193.327 110.908 186.547 107.132 184.446 107.315C177.107 107.975 165.79 124.824 165.79 124.824" fill="#FFC9B0"/>
<path d="M168.013 152.371C167.822 152.372 167.634 152.319 167.472 152.218C167.309 152.117 167.179 151.972 167.095 151.801C167.011 151.629 166.978 151.437 166.998 151.247C167.019 151.057 167.092 150.876 167.211 150.726C167.404 150.483 186.496 126.295 190.221 116.348C190.561 115.509 190.666 114.594 190.525 113.699C190.383 112.805 190.001 111.967 189.419 111.273C187.907 109.243 185.359 108.228 184.537 108.289C178.914 108.797 169.708 120.774 166.632 125.351C166.482 125.572 166.251 125.725 165.988 125.776C165.726 125.827 165.454 125.773 165.232 125.625C165.12 125.552 165.024 125.457 164.95 125.346C164.875 125.235 164.823 125.11 164.796 124.979C164.77 124.848 164.77 124.713 164.796 124.582C164.822 124.45 164.873 124.326 164.948 124.215C165.425 123.514 176.62 106.96 184.354 106.269C186.019 106.117 189.196 107.629 191.033 110.035C191.818 110.996 192.332 112.148 192.523 113.374C192.714 114.6 192.575 115.854 192.119 117.008C188.313 127.26 169.596 150.95 168.774 151.944C168.687 152.068 168.573 152.17 168.442 152.243C168.31 152.317 168.163 152.361 168.013 152.371Z" fill="#093F68"/>
<path d="M228.761 230.576L160.441 215.706L164.125 202.481L231.684 216.579L228.761 230.576Z" fill="white"/>
<path d="M228.761 231.591C228.69 231.601 228.618 231.601 228.547 231.591L160.228 216.711C160.092 216.685 159.964 216.63 159.852 216.549C159.74 216.469 159.646 216.365 159.578 216.244C159.507 216.127 159.46 215.996 159.441 215.86C159.422 215.724 159.431 215.585 159.467 215.453L163.151 202.258C163.22 202.009 163.382 201.796 163.602 201.662C163.823 201.529 164.086 201.484 164.339 201.537L231.897 215.635C232.159 215.691 232.389 215.848 232.536 216.072C232.682 216.297 232.734 216.571 232.678 216.833L229.755 230.84C229.7 231.103 229.543 231.332 229.319 231.48C229.147 231.569 228.953 231.608 228.761 231.591ZM161.71 214.915L227.979 229.348L230.486 217.341L164.856 203.648L161.71 214.915Z" fill="#093F68"/>
<path d="M233.633 248.247L235.145 230.576L153.701 214.661L142.141 248.247H233.633Z" fill="#F56132"/>
<path d="M233.633 249.272H142.1C141.937 249.273 141.777 249.235 141.632 249.161C141.487 249.087 141.362 248.979 141.268 248.846C141.173 248.714 141.112 248.561 141.089 248.4C141.066 248.24 141.082 248.076 141.136 247.922L152.697 214.326C152.778 214.095 152.939 213.901 153.152 213.78C153.364 213.659 153.614 213.618 153.854 213.666L235.297 229.581C235.545 229.628 235.766 229.765 235.918 229.966C236.07 230.167 236.141 230.417 236.119 230.667L234.597 248.339C234.577 248.585 234.469 248.816 234.291 248.988C234.114 249.16 233.88 249.261 233.633 249.272ZM143.562 247.242H232.699L234.059 231.398L154.371 215.828L143.562 247.242Z" fill="#093F68"/>
<path d="M191.591 133.715C191.396 133.717 191.205 133.663 191.04 133.559C190.875 133.455 190.744 133.306 190.661 133.129C190.579 132.953 190.549 132.756 190.575 132.563C190.602 132.37 190.683 132.188 190.81 132.04L234.373 80.7117C234.46 80.6104 234.566 80.5272 234.685 80.4668C234.803 80.4063 234.933 80.3699 235.066 80.3595C235.199 80.3492 235.332 80.3651 235.459 80.4063C235.586 80.4476 235.703 80.5135 235.805 80.6001C235.906 80.6867 235.989 80.7925 236.05 80.9113C236.11 81.0301 236.146 81.1597 236.157 81.2926C236.167 81.4254 236.151 81.5591 236.11 81.6858C236.069 81.8126 236.003 81.9299 235.916 82.0313L192.363 133.36C192.267 133.471 192.149 133.561 192.016 133.622C191.883 133.683 191.738 133.715 191.591 133.715V133.715Z" fill="white"/>
<path d="M189.805 169.169C189.548 169.168 189.302 169.07 189.115 168.895C188.917 168.713 188.8 168.46 188.789 168.192C188.777 167.924 188.872 167.662 189.054 167.464L228.639 124.529C228.822 124.331 229.076 124.214 229.345 124.204C229.614 124.193 229.877 124.29 230.075 124.473C230.273 124.656 230.39 124.911 230.4 125.18C230.411 125.449 230.314 125.712 230.131 125.91L190.546 168.844C190.451 168.946 190.336 169.028 190.209 169.084C190.081 169.139 189.944 169.169 189.805 169.169Z" fill="white"/>
<path d="M196.067 96.4339C195.806 96.4328 195.555 96.331 195.367 96.1497C195.178 95.9595 195.072 95.7022 195.072 95.4341C195.072 95.1659 195.178 94.9087 195.367 94.7185L208.795 80.6303C208.89 80.5352 209.002 80.4597 209.126 80.4081C209.249 80.3566 209.382 80.3301 209.516 80.3301C209.65 80.3301 209.783 80.3566 209.906 80.4081C210.03 80.4597 210.142 80.5352 210.237 80.6303C210.426 80.8205 210.532 81.0777 210.532 81.3459C210.532 81.614 210.426 81.8713 210.237 82.0615L196.798 96.1598C196.7 96.2515 196.586 96.3228 196.46 96.3699C196.335 96.4169 196.201 96.4387 196.067 96.4339V96.4339Z" fill="white"/>
<path d="M164.836 236.148C167.891 236.148 170.368 233.672 170.368 230.617C170.368 227.562 167.891 225.085 164.836 225.085C161.781 225.085 159.304 227.562 159.304 230.617C159.304 233.672 161.781 236.148 164.836 236.148Z" fill="#FFBC0E"/>
<path d="M164.836 237.164C163.54 237.166 162.274 236.784 161.196 236.065C160.118 235.347 159.277 234.326 158.78 233.129C158.283 231.933 158.152 230.617 158.403 229.346C158.655 228.075 159.278 226.908 160.193 225.991C161.108 225.075 162.274 224.45 163.545 224.197C164.815 223.943 166.132 224.072 167.329 224.568C168.525 225.063 169.548 225.902 170.268 226.979C170.988 228.056 171.372 229.322 171.372 230.617C171.372 232.352 170.684 234.015 169.458 235.243C168.233 236.47 166.57 237.161 164.836 237.164V237.164ZM164.836 226.11C163.942 226.108 163.067 226.372 162.323 226.867C161.578 227.363 160.998 228.068 160.655 228.894C160.311 229.72 160.221 230.629 160.395 231.506C160.569 232.383 160.999 233.189 161.632 233.821C162.264 234.453 163.07 234.884 163.947 235.058C164.824 235.232 165.733 235.141 166.559 234.798C167.384 234.455 168.09 233.875 168.585 233.13C169.081 232.386 169.344 231.511 169.342 230.617C169.346 230.023 169.233 229.433 169.008 228.883C168.783 228.333 168.452 227.832 168.033 227.411C167.614 226.989 167.116 226.654 166.567 226.426C166.019 226.198 165.43 226.08 164.836 226.08V226.11Z" fill="#093F68"/>
</svg>
